<svg width="512" height="512" viewBox="0 0 512 512" fill="none" xmlns="http://www.w3.org/2000/svg">
<path d="M462.967 399.003C455.229 416.891 446.069 433.357 435.457 448.495C420.991 469.133 409.147 483.418 400.019 491.35C385.87 504.371 370.709 511.04 354.475 511.419C342.82 511.419 328.765 508.1 312.404 501.369C295.99 494.669 280.905 491.35 267.112 491.35C252.647 491.35 237.132 494.669 220.538 501.369C203.918 508.1 190.53 511.608 180.293 511.956C164.725 512.62 149.208 505.762 133.719 491.35C123.833 482.722 111.468 467.932 96.6548 446.978C80.7615 424.603 67.6951 398.656 57.4586 369.075C46.4957 337.123 41 306.183 41 276.228C41 241.916 48.4097 212.322 63.2512 187.522C74.9153 167.602 90.4327 151.889 109.854 140.353C129.275 128.818 150.26 122.94 172.858 122.563C185.224 122.563 201.439 126.391 221.59 133.912C241.684 141.459 254.586 145.287 260.243 145.287C264.472 145.287 278.805 140.812 303.103 131.89C326.08 123.616 345.473 120.19 361.36 121.539C404.41 125.016 436.752 141.997 458.261 172.589C419.76 195.932 400.714 228.626 401.093 270.568C401.441 303.237 413.285 330.423 436.562 352.008C447.112 362.027 458.893 369.77 472 375.269C469.157 383.518 466.157 391.419 462.967 399.003ZM364.234 10.2429C364.234 35.8488 354.885 59.7569 336.25 81.886C313.762 108.193 286.562 123.395 257.065 120.996C256.69 117.924 256.472 114.691 256.472 111.293C256.472 86.7119 267.166 60.4047 286.158 38.8951C295.639 28.0044 307.698 18.9489 322.322 11.7251C336.914 4.60917 350.716 0.6739 363.697 0C364.076 3.4231 364.234 6.84642 364.234 10.2426V10.2429Z" fill="#B3B3B3"/>
</svg>
