<svg width="512" height="512" viewBox="0 0 512 512" fill="none" xmlns="http://www.w3.org/2000/svg">
<path fill-rule="evenodd" clip-rule="evenodd" d="M458.74 122.822L470.73 93.349C470.73 93.349 455.47 76.9749 436.94 58.4175C418.41 39.8601 379.17 50.7762 379.17 50.7762L334.48 0H256H177.52L132.83 50.7762C132.83 50.7762 93.59 39.8601 75.06 58.4175C56.53 76.9749 41.27 93.349 41.27 93.349L53.26 122.822L38 166.487C38 166.487 82.8807 336.729 88.14 357.519C98.495 398.454 105.58 414.282 135.01 435.023C164.44 455.764 217.85 491.787 226.57 497.245C235.29 502.703 246.19 512 256 512C265.81 512 276.71 502.703 285.43 497.245C294.15 491.787 347.56 455.764 376.99 435.023C406.42 414.282 413.505 398.454 423.86 357.519C429.118 336.729 474 166.487 474 166.487L458.74 122.822Z" fill="url(#paint0_linear_1397_3358)"/>
<path fill-rule="evenodd" clip-rule="evenodd" d="M366.635 82.9786C366.635 82.9786 424.117 152.569 424.117 167.442C424.117 182.315 416.886 186.241 409.616 193.972C402.345 201.704 370.593 235.472 366.515 239.808C362.437 244.145 353.948 250.72 358.942 262.554C363.935 274.388 371.301 289.447 363.11 304.721C354.917 319.994 340.884 330.189 331.891 328.503C322.899 326.817 301.78 315.764 294.014 310.716C286.247 305.667 261.633 285.337 261.633 277.558C261.633 269.78 287.077 255.814 291.777 252.641C296.479 249.469 317.919 237.187 318.359 232.366C318.797 227.545 318.63 226.131 312.303 214.22C305.975 202.307 294.58 186.411 296.477 175.834C298.374 165.259 316.751 159.759 329.866 154.799C342.979 149.84 368.228 140.473 371.382 139.016C374.537 137.559 373.722 136.172 364.166 135.265C354.612 134.357 327.497 130.753 315.273 134.165C303.049 137.578 282.164 142.769 280.472 145.522C278.781 148.275 277.289 148.368 279.026 157.865C280.762 167.362 289.707 212.933 290.575 221.027C291.443 229.121 293.142 234.472 284.427 236.468C275.711 238.463 261.041 241.928 256 241.928C250.959 241.928 236.287 238.463 227.573 236.468C218.857 234.472 220.555 229.121 221.424 221.027C222.293 212.933 231.236 167.362 232.974 157.865C234.71 148.368 233.218 148.275 231.527 145.522C229.835 142.769 208.95 137.578 196.726 134.165C184.501 130.753 157.388 134.357 147.833 135.265C138.278 136.172 137.462 137.559 140.617 139.016C143.771 140.473 169.021 149.84 182.134 154.799C195.248 159.759 213.626 165.259 215.523 175.834C217.419 186.411 206.023 202.307 199.697 214.22C193.369 226.131 193.202 227.545 193.641 232.366C194.079 237.187 215.52 249.469 220.222 252.641C224.923 255.814 250.366 269.78 250.366 277.558C250.366 285.337 225.752 305.667 217.986 310.716C210.22 315.764 189.101 326.817 180.109 328.503C171.116 330.189 157.082 319.994 148.89 304.721C140.699 289.447 148.065 274.388 153.057 262.554C158.05 250.72 149.562 244.145 145.484 239.808C141.407 235.472 109.653 201.704 102.383 193.972C95.1125 186.241 87.8826 182.315 87.8826 167.442C87.8826 152.569 145.365 82.9786 145.365 82.9786C145.365 82.9786 193.87 92.2573 200.41 92.2573C206.95 92.2573 221.12 86.7992 234.2 82.4328C247.28 78.0663 256 78.0347 256 78.0347C256 78.0347 264.72 78.0663 277.8 82.4328C290.88 86.7992 305.05 92.2573 311.59 92.2573C318.13 92.2573 366.635 82.9786 366.635 82.9786ZM323.543 349.175C327.1 351.406 324.93 355.612 321.69 357.906C318.448 360.201 274.89 393.98 270.663 397.713C266.435 401.448 260.223 407.614 256 407.614C251.776 407.614 245.563 401.448 241.336 397.713C237.108 393.98 193.551 360.201 190.31 357.906C187.068 355.612 184.899 351.406 188.457 349.175C192.015 346.944 203.148 341.315 218.509 333.354C233.868 325.394 253.012 318.626 256 318.626C258.987 318.626 278.13 325.394 293.491 333.354C308.851 341.315 319.984 346.944 323.543 349.175Z" fill="white"/>
<mask id="mask0_1397_3358" style="mask-type:alpha" maskUnits="userSpaceOnUse" x="75" y="0" width="362" height="93">
<path d="M379.17 50.7762L334.48 0H256H177.52L132.83 50.7762C132.83 50.7762 93.5903 39.8601 75.0603 58.4175C75.0603 58.4175 127.38 53.6876 145.365 82.9787C145.365 82.9787 193.87 92.2574 200.41 92.2574C206.95 92.2574 221.12 86.7994 234.2 82.4329C247.28 78.0665 256 78.0348 256 78.0348C256 78.0348 264.72 78.0665 277.8 82.4329C290.88 86.7994 305.05 92.2574 311.59 92.2574C318.13 92.2574 366.635 82.9787 366.635 82.9787C384.62 53.6876 436.94 58.4175 436.94 58.4175C418.41 39.8601 379.17 50.7762 379.17 50.7762Z" fill="white"/>
</mask>
<g mask="url(#mask0_1397_3358)">
<path d="M379.17 50.7762L334.48 0H256H177.52L132.83 50.7762C132.83 50.7762 93.5903 39.8601 75.0603 58.4175C75.0603 58.4175 127.38 53.6876 145.365 82.9787C145.365 82.9787 193.87 92.2574 200.41 92.2574C206.95 92.2574 221.12 86.7994 234.2 82.4329C247.28 78.0665 256 78.0348 256 78.0348C256 78.0348 264.72 78.0665 277.8 82.4329C290.88 86.7994 305.05 92.2574 311.59 92.2574C318.13 92.2574 366.635 82.9787 366.635 82.9787C384.62 53.6876 436.94 58.4175 436.94 58.4175C418.41 39.8601 379.17 50.7762 379.17 50.7762Z" fill="url(#paint1_linear_1397_3358)"/>
</g>
<defs>
<linearGradient id="paint0_linear_1397_3358" x1="38" y1="259.612" x2="474" y2="259.612" gradientUnits="userSpaceOnUse">
<stop stop-color="#FF5500"/>
<stop offset="0.409877" stop-color="#FF5500"/>
<stop offset="0.581981" stop-color="#FF2000"/>
<stop offset="1" stop-color="#FF2000"/>
</linearGradient>
<linearGradient id="paint1_linear_1397_3358" x1="82.8351" y1="46.7796" x2="436.94" y2="46.7796" gradientUnits="userSpaceOnUse">
<stop stop-color="#FF452A"/>
<stop offset="1" stop-color="#FF2000"/>
</linearGradient>
</defs>
</svg>
