<svg width="512" height="512" viewBox="0 0 512 512" fill="none" xmlns="http://www.w3.org/2000/svg">
<g clip-path="url(#clip0_1397_3402)">
<path d="M40.0835 119.175L155.192 315.077L256.365 140.034H484.537C464.112 99.7285 433.343 65.5556 395.371 41.0027C357.4 16.4497 313.585 2.39574 268.398 0.274991C223.21 -1.84576 178.268 8.04263 138.158 28.931C98.0477 49.8194 64.2051 80.96 40.0835 119.175V119.175Z" fill="#DB4437"/>
<path d="M357.597 315.077L245 511.738C248.769 511.883 252.538 512 256.365 512C300.176 511.985 343.248 500.73 381.451 479.315C419.655 457.9 451.708 427.043 474.536 389.703C497.365 352.363 510.204 309.793 511.823 266.074C513.441 222.356 503.784 178.955 483.778 140.034H256.365L357.597 315.077Z" fill="#FFCD40"/>
<path d="M40.1421 119.292C15.9693 157.116 2.20655 200.635 0.240682 245.462C-1.72519 290.29 8.17521 334.843 28.9443 374.633C49.7134 414.423 80.6177 448.044 118.543 472.109C156.469 496.174 200.076 509.832 244.971 511.708L356.954 315.048H154.491L40.1421 119.292Z" fill="#0B9D58"/>
<path d="M256.365 373.425C320.906 373.425 373.227 321.178 373.227 256.729C373.227 192.28 320.906 140.034 256.365 140.034C191.824 140.034 139.504 192.28 139.504 256.729C139.504 321.178 191.824 373.425 256.365 373.425Z" fill="#F1F1F1"/>
<path d="M256.365 350.086C307.998 350.086 349.855 308.289 349.855 256.729C349.855 205.17 307.998 163.373 256.365 163.373C204.733 163.373 162.876 205.17 162.876 256.729C162.876 308.289 204.733 350.086 256.365 350.086Z" fill="#4285F4"/>
</g>
<defs>
<clipPath id="clip0_1397_3402">
<rect width="512" height="512" fill="white"/>
</clipPath>
</defs>
</svg>
