<svg width="512" height="512" viewBox="0 0 512 512" fill="none" xmlns="http://www.w3.org/2000/svg">
<g clip-path="url(#clip0_1397_3351)">
<path d="M462.1 381.08C455.273 384.65 448.233 387.796 441.02 390.5C418.059 399.092 393.736 403.468 369.22 403.42C274.58 403.42 192.14 338.32 192.14 254.78C192.261 243.575 195.37 232.606 201.147 223.004C206.923 213.403 215.158 205.517 225 200.16C139.4 203.76 117.4 292.96 117.4 345.22C117.4 492.98 253.58 507.96 282.92 507.96C298.74 507.96 322.6 503.36 336.92 498.84L339.54 497.96C394.645 478.91 441.622 441.667 472.74 392.36C473.693 390.859 474.118 389.082 473.949 387.312C473.78 385.541 473.025 383.878 471.805 382.584C470.585 381.29 468.968 380.44 467.21 380.167C465.453 379.895 463.655 380.216 462.1 381.08Z" fill="url(#paint0_linear_1397_3351)"/>
<path opacity="0.35" d="M462.1 381.08C455.273 384.65 448.233 387.796 441.02 390.5C418.059 399.092 393.736 403.468 369.22 403.42C274.58 403.42 192.14 338.32 192.14 254.78C192.261 243.575 195.37 232.606 201.147 223.004C206.923 213.403 215.158 205.517 225 200.16C139.4 203.76 117.4 292.96 117.4 345.22C117.4 492.98 253.58 507.96 282.92 507.96C298.74 507.96 322.6 503.36 336.92 498.84L339.54 497.96C394.645 478.91 441.622 441.667 472.74 392.36C473.693 390.859 474.118 389.082 473.949 387.312C473.78 385.541 473.025 383.878 471.805 382.584C470.585 381.29 468.968 380.44 467.21 380.167C465.453 379.895 463.655 380.216 462.1 381.08Z" fill="url(#paint1_radial_1397_3351)"/>
<path d="M211.42 482.84C193.581 471.768 178.121 457.26 165.94 440.16C152.056 421.138 142.501 399.308 137.947 376.202C133.393 353.096 133.949 329.274 139.576 306.406C145.204 283.538 155.766 262.178 170.523 243.824C185.28 225.47 203.874 210.567 225 200.16C231.24 197.22 241.9 191.9 256.08 192.16C266.07 192.233 275.908 194.618 284.822 199.129C293.736 203.64 301.484 210.154 307.46 218.16C315.536 228.944 319.989 242.009 320.18 255.48C320.18 255.06 369.1 96.2803 160.18 96.2803C72.3799 96.2803 0.179874 179.6 0.179874 252.7C-0.166448 291.369 8.10734 329.629 24.3999 364.7C51.0264 421.512 97.589 466.567 155.246 491.31C212.902 516.053 277.638 518.761 337.16 498.92C316.319 505.491 294.301 507.464 272.624 504.701C250.947 501.939 230.127 494.508 211.6 482.92L211.42 482.84Z" fill="url(#paint2_linear_1397_3351)"/>
<path opacity="0.41" d="M211.42 482.84C193.581 471.768 178.121 457.26 165.94 440.16C152.056 421.138 142.501 399.308 137.947 376.202C133.393 353.096 133.949 329.274 139.576 306.406C145.204 283.538 155.766 262.178 170.523 243.824C185.28 225.47 203.874 210.567 225 200.16C231.24 197.22 241.9 191.9 256.08 192.16C266.07 192.233 275.908 194.618 284.822 199.129C293.736 203.64 301.484 210.154 307.46 218.16C315.536 228.944 319.989 242.009 320.18 255.48C320.18 255.06 369.1 96.2803 160.18 96.2803C72.3799 96.2803 0.179874 179.6 0.179874 252.7C-0.166448 291.369 8.10734 329.629 24.3999 364.7C51.0264 421.512 97.589 466.567 155.246 491.31C212.902 516.053 277.638 518.761 337.16 498.92C316.319 505.491 294.301 507.464 272.624 504.701C250.947 501.939 230.127 494.508 211.6 482.92L211.42 482.84Z" fill="url(#paint3_radial_1397_3351)"/>
<path d="M304.62 297.72C303 299.82 298.02 302.72 298.02 309.04C298.02 314.26 301.42 319.28 307.46 323.5C336.22 343.5 390.44 340.86 390.58 340.86C411.89 340.809 432.797 335.042 451.12 324.16C469.604 313.367 484.945 297.929 495.621 279.377C506.297 260.825 511.936 239.804 511.98 218.4C512.5 173.58 495.98 143.78 489.3 130.58C446.92 47.68 355.44 1.25328e-06 255.96 1.25328e-06C188.684 -0.00665114 124.109 26.47 76.2016 73.7034C28.2945 120.937 0.906033 185.13 -0.0400391 252.4C0.919961 179.32 73.56 120.3 159.96 120.3C166.96 120.3 206.88 120.98 243.96 140.44C276.64 157.6 293.76 178.32 305.66 198.86C318.02 220.2 320.22 247.16 320.22 257.9C320.22 268.64 314.74 284.56 304.62 297.72Z" fill="url(#paint4_radial_1397_3351)"/>
<path d="M304.62 297.72C303 299.82 298.02 302.72 298.02 309.04C298.02 314.26 301.42 319.28 307.46 323.5C336.22 343.5 390.44 340.86 390.58 340.86C411.89 340.809 432.797 335.042 451.12 324.16C469.604 313.367 484.945 297.929 495.621 279.377C506.297 260.825 511.936 239.804 511.98 218.4C512.5 173.58 495.98 143.78 489.3 130.58C446.92 47.68 355.44 1.25328e-06 255.96 1.25328e-06C188.684 -0.00665114 124.109 26.47 76.2016 73.7034C28.2945 120.937 0.906033 185.13 -0.0400391 252.4C0.919961 179.32 73.56 120.3 159.96 120.3C166.96 120.3 206.88 120.98 243.96 140.44C276.64 157.6 293.76 178.32 305.66 198.86C318.02 220.2 320.22 247.16 320.22 257.9C320.22 268.64 314.74 284.56 304.62 297.72Z" fill="url(#paint5_radial_1397_3351)"/>
</g>
<defs>
<linearGradient id="paint0_linear_1397_3351" x1="117.4" y1="354.1" x2="474.08" y2="354.1" gradientUnits="userSpaceOnUse">
<stop stop-color="#0C59A4"/>
<stop offset="1" stop-color="#114A8B"/>
</linearGradient>
<radialGradient id="paint1_radial_1397_3351" cx="0" cy="0" r="1" gradientUnits="userSpaceOnUse" gradientTransform="translate(314.4 356.911) scale(190.76 181.222)">
<stop offset="0.72" stop-opacity="0"/>
<stop offset="0.95" stop-opacity="0.53"/>
<stop offset="1"/>
</radialGradient>
<linearGradient id="paint2_linear_1397_3351" x1="305.44" y1="199.38" x2="82.6599" y2="442.04" gradientUnits="userSpaceOnUse">
<stop stop-color="#1B9DE2"/>
<stop offset="0.16" stop-color="#1595DF"/>
<stop offset="0.67" stop-color="#0680D7"/>
<stop offset="1" stop-color="#0078D4"/>
</linearGradient>
<radialGradient id="paint3_radial_1397_3351" cx="0" cy="0" r="1" gradientUnits="userSpaceOnUse" gradientTransform="translate(141.149 398.017) rotate(-81.3844) scale(286.852 231.748)">
<stop offset="0.76" stop-opacity="0"/>
<stop offset="0.95" stop-opacity="0.5"/>
<stop offset="1"/>
</radialGradient>
<radialGradient id="paint4_radial_1397_3351" cx="0" cy="0" r="1" gradientUnits="userSpaceOnUse" gradientTransform="translate(51.6849 94.7536) rotate(92.2906) scale(405.184 862.957)">
<stop stop-color="#35C1F1"/>
<stop offset="0.11" stop-color="#34C1ED"/>
<stop offset="0.23" stop-color="#2FC2DF"/>
<stop offset="0.31" stop-color="#2BC3D2"/>
<stop offset="0.67" stop-color="#36C752"/>
</radialGradient>
<radialGradient id="paint5_radial_1397_3351" cx="0" cy="0" r="1" gradientUnits="userSpaceOnUse" gradientTransform="translate(480.104 154.812) rotate(73.7398) scale(194.68 158.314)">
<stop stop-color="#66EB6E"/>
<stop offset="1" stop-color="#66EB6E" stop-opacity="0"/>
</radialGradient>
<clipPath id="clip0_1397_3351">
<rect width="512" height="512" fill="white"/>
</clipPath>
</defs>
</svg>
