<svg width="512" height="512" fill="none" xmlns="http://www.w3.org/2000/svg"><path d="M485.722 171.89c-10.782-25.942-32.653-53.953-49.779-62.807a257.813 257.813 0 0 1 25.129 75.292l.045.416c-28.055-69.914-75.612-98.149-114.475-159.548-1.965-3.105-3.931-6.217-5.845-9.501a78.33 78.33 0 0 1-2.734-5.122 45.128 45.128 0 0 1-3.701-9.828.64.64 0 0 0-.563-.64.882.882 0 0 0-.467 0c-.032 0-.084.058-.122.07-.038.013-.122.07-.179.097l.096-.167c-62.328 36.494-83.488 104.039-85.408 137.844a124.14 124.14 0 0 0-68.314 26.32 74.285 74.285 0 0 0-6.402-4.853 115.04 115.04 0 0 1-.698-60.65 183.743 183.743 0 0 0-59.728 46.161h-.115c-9.835-12.465-9.143-53.568-8.58-62.154a44.365 44.365 0 0 0-8.284 4.398 180.718 180.718 0 0 0-24.253 20.776 216.66 216.66 0 0 0-23.195 27.831v.039-.045a209.551 209.551 0 0 0-33.293 75.164l-.333 1.639c-.467 2.183-2.151 13.119-2.44 15.494 0 .186-.038.358-.057.544A236.518 236.518 0 0 0 8 262.868v1.281a248.155 248.155 0 0 0 227.097 246.823A248.155 248.155 0 0 0 500.665 306.11c.416-3.201.755-6.37 1.127-9.604a255.196 255.196 0 0 0-16.096-124.654l.026.038ZM199.726 366.139c1.159.557 2.248 1.159 3.438 1.69l.173.109a130.35 130.35 0 0 1-3.611-1.799Zm261.398-181.278v-.237l.044.263-.044-.026Z" fill="url(#a)"/><path d="M485.722 171.891c-10.782-25.943-32.652-53.953-49.779-62.808a257.825 257.825 0 0 1 25.13 75.292v.237l.044.263a224.721 224.721 0 0 1-7.721 167.487c-28.439 61.021-97.252 123.566-205.005 120.493-116.395-3.297-218.962-89.698-238.105-202.828-3.49-17.844 0-26.89 1.754-41.392a184.917 184.917 0 0 0-3.988 34.24v1.281a248.16 248.16 0 0 0 227.096 246.823 248.154 248.154 0 0 0 265.568-204.862c.416-3.201.756-6.37 1.127-9.603a255.198 255.198 0 0 0-16.096-124.655l-.025.032Z" fill="url(#b)"/><path d="M485.722 171.891c-10.782-25.943-32.652-53.953-49.779-62.808a257.825 257.825 0 0 1 25.13 75.292v.237l.044.263a224.721 224.721 0 0 1-7.721 167.487c-28.439 61.021-97.252 123.566-205.005 120.493-116.395-3.297-218.962-89.698-238.105-202.828-3.49-17.844 0-26.89 1.754-41.392a184.917 184.917 0 0 0-3.988 34.24v1.281a248.16 248.16 0 0 0 227.096 246.823 248.154 248.154 0 0 0 265.568-204.862c.416-3.201.756-6.37 1.127-9.603a255.198 255.198 0 0 0-16.096-124.655l-.025.032Z" fill="url(#c)"/><path d="M365.101 201.022c.538.377 1.037.755 1.543 1.133a135.05 135.05 0 0 0-23.049-30.059C266.446 94.946 323.383 4.865 332.98.256l.096-.142c-62.327 36.494-83.487 104.039-85.408 137.844 2.894-.199 5.762-.442 8.72-.442a125.235 125.235 0 0 1 108.713 63.493v.013Z" fill="url(#d)"/><path d="M256.517 216.451c-.41 6.172-22.217 27.46-29.842 27.46-70.554 0-82.015 42.685-82.015 42.685 3.125 35.943 28.171 65.561 58.448 81.183 1.383.717 2.785 1.363 4.187 1.997a137.858 137.858 0 0 0 7.286 2.984 110.383 110.383 0 0 0 32.287 6.229c123.695 5.801 147.64-147.895 58.384-192.52a85.66 85.66 0 0 1 59.83 14.527 125.224 125.224 0 0 0-45.798-46.4 125.223 125.223 0 0 0-62.915-17.093c-2.945 0-5.826.244-8.72.442a124.148 124.148 0 0 0-68.313 26.32c3.784 3.202 8.054 7.478 17.049 16.346 16.839 16.588 60.023 33.772 60.119 35.789l.013.051Z" fill="url(#e)"/><path d="M256.517 216.451c-.41 6.172-22.217 27.46-29.842 27.46-70.554 0-82.015 42.685-82.015 42.685 3.125 35.943 28.171 65.561 58.448 81.183 1.383.717 2.785 1.363 4.187 1.997a137.858 137.858 0 0 0 7.286 2.984 110.383 110.383 0 0 0 32.287 6.229c123.695 5.801 147.64-147.895 58.384-192.52a85.66 85.66 0 0 1 59.83 14.527 125.224 125.224 0 0 0-45.798-46.4 125.223 125.223 0 0 0-62.915-17.093c-2.945 0-5.826.244-8.72.442a124.148 124.148 0 0 0-68.313 26.32c3.784 3.202 8.054 7.478 17.049 16.346 16.839 16.588 60.023 33.772 60.119 35.789l.013.051Z" fill="url(#f)"/><path d="M167.779 156.077c2.01 1.28 3.668 2.394 5.122 3.399a115.039 115.039 0 0 1-.698-60.65 183.741 183.741 0 0 0-59.728 46.162c1.21-.032 37.204-.679 55.304 11.089Z" fill="url(#g)"/><path d="M10.241 270.04c19.15 113.13 121.71 199.563 238.105 202.828 107.753 3.048 176.579-59.504 205.005-120.493a224.72 224.72 0 0 0 7.721-167.487v-.237c0-.186-.038-.294 0-.237l.045.416c8.804 57.475-20.43 113.131-66.137 150.841l-.14.32c-89.058 72.539-174.274 43.754-191.496 32.012a128.969 128.969 0 0 1-3.611-1.799c-51.917-24.816-73.372-72.091-68.762-112.682a63.718 63.718 0 0 1-58.78-36.974 93.602 93.602 0 0 1 91.234-3.662 123.567 123.567 0 0 0 93.155 3.662c-.096-2.017-43.28-19.207-60.119-35.79-8.995-8.867-13.266-13.137-17.049-16.345a74.3 74.3 0 0 0-6.403-4.853c-1.472-1.005-3.131-2.093-5.122-3.4-18.099-11.767-54.094-11.121-55.284-11.088h-.116c-9.834-12.466-9.142-53.57-8.579-62.155a44.366 44.366 0 0 0-8.285 4.398 180.724 180.724 0 0 0-24.252 20.776 216.66 216.66 0 0 0-23.292 27.767v.039-.045a209.551 209.551 0 0 0-33.292 75.164c-.122.506-8.938 39.048-4.59 59.037l.044-.013Z" fill="url(#h)"/><path d="M343.589 172.083a135.099 135.099 0 0 1 23.048 30.091c1.364 1.031 2.638 2.056 3.72 3.048 56.258 51.859 26.782 125.167 24.585 130.353 45.701-37.653 74.909-93.347 66.137-150.841-28.068-69.978-75.676-98.213-114.475-159.612-1.965-3.105-3.931-6.216-5.845-9.5a78.33 78.33 0 0 1-2.734-5.123 45.176 45.176 0 0 1-3.7-9.827.64.64 0 0 0-.564-.64.882.882 0 0 0-.467 0c-.032 0-.083.057-.122.07-.038.013-.122.07-.179.096-9.597 4.552-66.521 94.691 10.628 171.776l-.032.109Z" fill="url(#i)"/><path d="M370.351 205.247c-1.082-.992-2.356-2.017-3.72-3.047-.506-.378-1.005-.756-1.543-1.134a85.67 85.67 0 0 0-59.831-14.527c89.25 44.625 65.305 198.283-58.383 192.52a110.35 110.35 0 0 1-32.287-6.229 130.293 130.293 0 0 1-7.286-2.984c-1.402-.64-2.805-1.28-4.187-1.997l.172.109c17.248 11.774 102.439 40.54 191.496-32.012l.141-.32c2.222-5.186 31.698-78.494-24.585-130.353l.013-.026Z" fill="url(#j)"/><path d="M144.666 286.558s11.454-42.685 82.015-42.685c7.625 0 29.451-21.288 29.841-27.46a123.565 123.565 0 0 1-93.154-3.662 93.604 93.604 0 0 0-91.235 3.662 63.722 63.722 0 0 0 58.781 36.974c-4.597 40.572 16.851 87.841 68.762 112.682 1.158.557 2.247 1.159 3.438 1.69-30.303-15.653-55.324-45.258-58.448-81.182v-.019Z" fill="url(#k)"/><path d="M485.723 171.89c-10.782-25.942-32.653-53.953-49.779-62.807a257.784 257.784 0 0 1 25.129 75.292l.045.416c-28.055-69.914-75.612-98.149-114.475-159.548-1.965-3.105-3.931-6.217-5.845-9.501a78.33 78.33 0 0 1-2.734-5.122 45.23 45.23 0 0 1-3.701-9.828.635.635 0 0 0-.563-.64.882.882 0 0 0-.467 0c-.032 0-.084.058-.122.07-.038.013-.122.07-.179.097l.096-.167C270.8 36.646 249.641 104.191 247.72 137.996c2.894-.199 5.762-.442 8.72-.442a125.235 125.235 0 0 1 108.713 63.493 85.66 85.66 0 0 0-59.831-14.527c89.25 44.624 65.305 198.282-58.383 192.52a110.391 110.391 0 0 1-32.288-6.23 130.899 130.899 0 0 1-7.286-2.983c-1.402-.641-2.804-1.281-4.187-1.998l.173.109a130.35 130.35 0 0 1-3.611-1.799c1.159.557 2.247 1.159 3.438 1.69-30.302-15.66-55.323-45.265-58.447-81.182 0 0 11.454-42.685 82.015-42.685 7.625 0 29.451-21.288 29.841-27.46-.096-2.017-43.28-19.207-60.118-35.789-8.996-8.868-13.266-13.138-17.05-16.346a74.285 74.285 0 0 0-6.402-4.853 115.039 115.039 0 0 1-.698-60.65 183.743 183.743 0 0 0-59.728 46.162h-.116c-9.834-12.466-9.142-53.57-8.579-62.155a44.362 44.362 0 0 0-8.284 4.398 180.71 180.71 0 0 0-24.253 20.776 216.67 216.67 0 0 0-23.196 27.832v.038-.045a209.551 209.551 0 0 0-33.292 75.164l-.333 1.639c-.467 2.184-2.561 13.273-2.862 15.654a288.705 288.705 0 0 0-3.662 34.592v1.281a248.16 248.16 0 0 0 399.73 196.05 248.164 248.164 0 0 0 92.935-154.089c.416-3.201.755-6.37 1.127-9.603a255.198 255.198 0 0 0-16.096-124.655l.013-.013Zm-24.618 12.747.045.263-.045-.263Z" fill="url(#l)"/><defs><radialGradient id="b" cx="0" cy="0" r="1" gradientUnits="userSpaceOnUse" gradientTransform="translate(436.936 57.736) scale(517.314)"><stop offset=".129" stop-color="#FFBD4F"/><stop offset=".186" stop-color="#FFAC31"/><stop offset=".247" stop-color="#FF9D17"/><stop offset=".283" stop-color="#FF980E"/><stop offset=".403" stop-color="#FF563B"/><stop offset=".467" stop-color="#FF3750"/><stop offset=".71" stop-color="#F5156C"/><stop offset=".782" stop-color="#EB0878"/><stop offset=".86" stop-color="#E50080"/></radialGradient><radialGradient id="c" cx="0" cy="0" r="1" gradientUnits="userSpaceOnUse" gradientTransform="translate(244.864 269.015) scale(517.314)"><stop offset=".3" stop-color="#960E18"/><stop offset=".351" stop-color="#B11927" stop-opacity=".74"/><stop offset=".435" stop-color="#DB293D" stop-opacity=".343"/><stop offset=".497" stop-color="#F5334B" stop-opacity=".094"/><stop offset=".53" stop-color="#FF3750" stop-opacity="0"/></radialGradient><radialGradient id="d" cx="0" cy="0" r="1" gradientUnits="userSpaceOnUse" gradientTransform="translate(308.888 -57.507) scale(374.732)"><stop offset=".132" stop-color="#FFF44F"/><stop offset=".252" stop-color="#FFDC3E"/><stop offset=".506" stop-color="#FF9D12"/><stop offset=".526" stop-color="#FF980E"/></radialGradient><radialGradient id="e" cx="0" cy="0" r="1" gradientUnits="userSpaceOnUse" gradientTransform="translate(187.243 403.466) scale(246.3)"><stop offset=".353" stop-color="#3A8EE6"/><stop offset=".472" stop-color="#5C79F0"/><stop offset=".669" stop-color="#9059FF"/><stop offset="1" stop-color="#C139E6"/></radialGradient><radialGradient id="f" cx="0" cy="0" r="1" gradientUnits="userSpaceOnUse" gradientTransform="rotate(-13.592 1077.34 -1020.064) scale(130.61 152.911)"><stop offset=".206" stop-color="#9059FF" stop-opacity="0"/><stop offset=".278" stop-color="#8C4FF3" stop-opacity=".064"/><stop offset=".747" stop-color="#7716A8" stop-opacity=".45"/><stop offset=".975" stop-color="#6E008B" stop-opacity=".6"/></radialGradient><radialGradient id="g" cx="0" cy="0" r="1" gradientUnits="userSpaceOnUse" gradientTransform="translate(238.461 38.529) scale(177.218)"><stop stop-color="#FFE226"/><stop offset=".121" stop-color="#FFDB27"/><stop offset=".295" stop-color="#FFC82A"/><stop offset=".502" stop-color="#FFA930"/><stop offset=".732" stop-color="#FF7E37"/><stop offset=".792" stop-color="#FF7139"/></radialGradient><radialGradient id="h" cx="0" cy="0" r="1" gradientUnits="userSpaceOnUse" gradientTransform="translate(379.314 -76.714) scale(756.124)"><stop offset=".113" stop-color="#FFF44F"/><stop offset=".456" stop-color="#FF980E"/><stop offset=".622" stop-color="#FF5634"/><stop offset=".716" stop-color="#FF3647"/><stop offset=".904" stop-color="#E31587"/></radialGradient><radialGradient id="i" cx="0" cy="0" r="1" gradientUnits="userSpaceOnUse" gradientTransform="rotate(83.976 177.562 158.415) scale(554.098 363.65)"><stop stop-color="#FFF44F"/><stop offset=".06" stop-color="#FFE847"/><stop offset=".168" stop-color="#FFC830"/><stop offset=".304" stop-color="#FF980E"/><stop offset=".356" stop-color="#FF8B16"/><stop offset=".455" stop-color="#FF672A"/><stop offset=".57" stop-color="#FF3647"/><stop offset=".737" stop-color="#E31587"/></radialGradient><radialGradient id="j" cx="0" cy="0" r="1" gradientUnits="userSpaceOnUse" gradientTransform="translate(238.461 102.553) scale(471.985)"><stop offset=".137" stop-color="#FFF44F"/><stop offset=".48" stop-color="#FF980E"/><stop offset=".592" stop-color="#FF5634"/><stop offset=".655" stop-color="#FF3647"/><stop offset=".904" stop-color="#E31587"/></radialGradient><radialGradient id="k" cx="0" cy="0" r="1" gradientUnits="userSpaceOnUse" gradientTransform="translate(360.107 128.162) scale(516.61)"><stop offset=".094" stop-color="#FFF44F"/><stop offset=".231" stop-color="#FFE141"/><stop offset=".509" stop-color="#FFAF1E"/><stop offset=".626" stop-color="#FF980E"/></radialGradient><linearGradient id="a" x1="452.877" y1="79.413" x2="40.928" y2="476.874" gradientUnits="userSpaceOnUse"><stop offset=".048" stop-color="#FFF44F"/><stop offset=".111" stop-color="#FFE847"/><stop offset=".225" stop-color="#FFC830"/><stop offset=".368" stop-color="#FF980E"/><stop offset=".401" stop-color="#FF8B16"/><stop offset=".462" stop-color="#FF672A"/><stop offset=".534" stop-color="#FF3647"/><stop offset=".705" stop-color="#E31587"/></linearGradient><linearGradient id="l" x1="447.884" y1="77.3" x2="97.417" y2="427.832" gradientUnits="userSpaceOnUse"><stop offset=".167" stop-color="#FFF44F" stop-opacity=".8"/><stop offset=".266" stop-color="#FFF44F" stop-opacity=".634"/><stop offset=".489" stop-color="#FFF44F" stop-opacity=".217"/><stop offset=".6" stop-color="#FFF44F" stop-opacity="0"/></linearGradient></defs></svg>