<svg version="1.1" id="Layer_1" xmlns="http://www.w3.org/2000/svg" xmlns:xlink="http://www.w3.org/1999/xlink" x="0" y="0" viewBox="0 0 244.8 245" style="enable-background:new 0 0 244.8 245" xml:space="preserve"><style>.st0{fill:#050507}</style><g id="layer2" transform="translate(8 4.6)"><g id="g463"><path id="path28712-2" class="st0" d="M113.8-.6c-5.7-.1-11.5 1.1-16.5 3.8-5.4 2.9-9.7 7.5-12.4 12.9S81.1 27.4 81 33.8c-.3 12.2.3 24.9 1.2 36.5.2 3.5.7 5.6.2 9.2-1.5 7.7-8.2 12.9-11.8 19.6-4 7.4-5.6 15.9-8.6 23.7-2.7 7.2-6.6 14-9.2 21.2-3.6 10.2-4.7 21.3-2.3 31.8 1.8 8 5.6 15.5 10.8 22-.7 1.3-1.5 2.7-2.2 4-2.4 4.1-5.3 8-6.6 12.5-.7 2.3-.9 4.7-.5 7s1.6 4.6 3.5 6c1.2 1 2.7 1.6 4.2 1.9 1.5.4 3.1.4 4.6.4 5.9-.1 11.6-1.9 17.3-3.4 3.4-.9 6.8-1.7 10.2-2.4 12.2-2.5 25.7-1.5 37 .1 3.8.6 7.6 1.3 11.4 2.2 5.9 1.4 11.8 3.2 17.8 3.4 1.6 0 3.2 0 4.8-.4 1.6-.3 3.1-1 4.3-2 1.9-1.5 3-3.7 3.5-6.1s.2-4.8-.5-7c-1.4-4.6-4.3-8.4-6.7-12.5-1-1.6-1.9-3.3-2.8-4.9 7.3-8.2 13.2-17.7 16.6-28.1 3.7-11.4 4.4-23.7 2.8-35.5-1.6-11.9-5.3-23.4-10.3-34.3-6.2-13.7-11.5-18.6-15.2-30.6-4.1-13-.7-28.3-3.8-40.1-1.1-4-2.8-7.8-5-11.3-2.6-4.1-5.9-7.8-9.9-10.6-6.5-4.3-14.2-6.6-22-6.7z"/><path id="path29719-5" d="M91.4 67.9c-.8 1-1.4 2.3-1.7 3.6-.3 1.3-.4 2.6-.5 4-.1 2.7.1 5.4-.6 8-.8 2.8-2.5 5.2-4.1 7.5-2.9 4-5.8 8.2-7.2 12.9-.9 2.9-1.1 5.9-.8 8.9-3.2 4.7-6 9.7-8.3 15-3.5 7.9-5.9 16.4-6.7 25-1 10.6.3 21.4 4.5 31.2 3 7.1 7.5 13.5 13.3 18.5 2.9 2.6 6.2 4.7 9.7 6.5 12.1 6 27.1 6 39.1-.4 6.2-3.3 11.5-8.2 16.6-13.1 3.1-3 6.1-6 8.4-9.6 4.5-6.9 6.1-15.2 7-23.3 1.7-14.2 1.8-29.3-4.5-42.2-2.1-4.4-5-8.5-8.4-12.1-.9-6.2-2.7-12.3-5.3-18-1.9-4.1-4.2-8-6-12.2-.7-1.7-1.3-3.5-2.1-5.1-.8-1.7-1.8-3.3-3.1-4.6-1.4-1.3-3.1-2.2-4.9-2.8-1.8-.6-3.7-.9-5.6-1-3.8-.2-7.6.3-11.4.2-3-.1-6-.7-9.1-.5-1.5.1-3 .4-4.4.9-1.7.6-3 1.5-3.9 2.7" style="fill:#fdfefc"/></g><g id="g562"><radialGradient id="path4400-1_00000180359060098854447200000016450160824525528759_" cx="-1666.193" cy="987.495" r="21.853" gradientTransform="matrix(-.8062 0 0 .7634 -1272.237 -642.257)" gradientUnits="userSpaceOnUse"><stop offset="0" style="stop-color:#010101"/><stop offset="1" style="stop-color:#010101;stop-opacity:.2489"/></radialGradient><path id="path4400-1" style="opacity:.25;fill:url(#path4400-1_00000180359060098854447200000016450160824525528759_);enable-background:new" d="M78 106c.8 1.2-.5 5.4 18.4 2.7 0 0-3.3.4-6.6 1.1-5.1 1.7-9.5 3.6-12.9 6.1s-5.9 5.7-9 8.5c0 0 5-9.2 6.3-12s-.2-2.6.8-6.7 3.4-8 3.4-8-2 5.9-.4 8.3z"/><radialGradient id="path4400-2-8_00000083082090306764681030000009053348093418011557_" cx="264.821" cy="1000.123" r="21.853" gradientTransform="matrix(1 0 0 .7634 -134 -642.257)" gradientUnits="userSpaceOnUse"><stop offset="0" style="stop-color:#010101"/><stop offset="1" style="stop-color:#010101;stop-opacity:.2489"/></radialGradient><path id="path4400-2-8" style="opacity:.42;fill:url(#path4400-2-8_00000083082090306764681030000009053348093418011557_);enable-background:new" d="M138.7 104.9c-3.8 2.7-6.1 2.4-10.8 2.9-4.7.5-17.3.3-17.3.3s1.8 0 5.9.7c4.1.8 12.3 1.5 17 3.3s6.4 2.3 9.2 4.1c4 2.5 7 6.5 10.8 9.3 0 0 .2-3.7-1.4-6.5-1.6-2.8-5.7-7.1-7-11.2-1.2-4.1-1.8-12.1-1.8-12.1s-.7 6.6-4.6 9.2z"/><radialGradient id="path4491-9_00000033348796871015613120000007511446375709119890_" cx="235.628" cy="751.882" r="8.652" gradientTransform="matrix(1 0 0 1.0692 -134 -686.496)" gradientUnits="userSpaceOnUse"><stop offset="0" style="stop-color:#010101"/><stop offset="1" style="stop-color:#010101;stop-opacity:.2489"/></radialGradient><path id="path4491-9" style="opacity:.2;fill:url(#path4491-9_00000033348796871015613120000007511446375709119890_);enable-background:new" d="M102.5 99.2c-.1 1.2-.3 2.3-.6 3.5-.1.6-.2 1.1-.4 1.7s-.5 1-.9 1.4c-.4.3-.8.6-1.3.8-1.8.8-3.7 1.4-5.7 1.6.8.1 1.6.1 2.3.2.5.1 1 .1 1.5.2s.9.3 1.3.6.8.8 1 1.2c.5 1 .7 2 .8 3.1.1 1.4.1 2.8 0 4.1.1-.9.3-1.8.6-2.7.5-1.6 1.4-3.1 2.5-4.3.4-.5.9-.9 1.5-1.3 1.7-1.2 3.8-1.7 5.8-1.4-2 .1-4.1-.6-5.7-1.8-.8-.6-1.6-1.4-2.1-2.3-.8-1.3-1-3-.6-4.6"/><path id="path4542-7" d="M97.6 126.4c-1 3.7-1.7 7.5-2 11.4-.5 5.4-.4 10.9-.7 16.4-.2 4.6-.8 9.3 0 13.9.4 2.2 1.1 4.3 2 6.3.2-.8.3-1.5.3-2.3.3-3.7-.3-7.4-.5-11.1-.4-6.5.5-13 .9-19.5.4-5.1.3-10.1 0-15.1" style="opacity:.11;fill:#010101;enable-background:new"/><path id="path28767-9-3" d="M80.1 89.6c-.1-1.1-1.7-1.3-2.5-.7-.6.5-1.2 2.1-.7 2.8.9 1 3.3-.5 3.2-2.1z" style="opacity:.25;fill:#7d7d7d;enable-background:new"/><path id="path15189-4" d="M162.6 120.9c.9-.1 6.8 4.8 6 6.7-.8 1.8-2.3.7-3.4.7s-4 1.3-4.5.5 1.3-2.8 2.2-4.5c.8-1.3-1.2-3.3-.3-3.4z" style="opacity:.75;fill:#7d7d7d;enable-background:new"/><path id="path28767-3" d="M126.9 9.7c-2 1.4-1.2 3.2-.3 5.1s-1.9 7-2 7.2c0 .2 5.5-2.6 7.1-4.5 1.8-2.2 6.3 3 6.1 2.2 0-1.4-8.8-11.4-10.9-10z" style="fill:#7d7d7d"/><path id="path4596-3" d="M142.4 70.3c-1.7 1.6.8 3.9 2 6.7.7 1.7 2.8 4.2 4.8 3.8 1.5-.3 2.4-2.5 2.3-4-.3-2.9-2.8-3.6-4.6-4.6-1.4-.8-3.3-3-4.5-1.9z" style="fill:#838385"/><defs><path id="SVGID_1_" d="M91.4 67.9c-.8 1-1.4 2.3-1.7 3.6-.3 1.3-.4 2.6-.5 4-.1 2.7.1 5.4-.6 8-.8 2.8-2.5 5.2-4.1 7.5-2.9 4-5.8 8.2-7.2 12.9-.9 2.9-1.1 5.9-.8 8.9-3.2 4.7-6 9.7-8.3 15-3.5 7.9-5.9 16.4-6.7 25-1 10.6.3 21.4 4.5 31.2 3 7.1 7.5 13.5 13.3 18.5 2.9 2.6 6.2 4.7 9.7 6.5 12.1 6 27.1 6 39.1-.4 6.2-3.3 11.5-8.2 16.6-13.1 3.1-3 6.1-6 8.4-9.6 4.5-6.9 6.1-15.2 7-23.3 1.7-14.2 1.8-29.3-4.5-42.2-2.1-4.4-5-8.5-8.4-12.1-.9-6.2-2.7-12.3-5.3-18-1.9-4.1-4.2-8-6-12.2-.7-1.7-1.3-3.5-2.1-5.1-.8-1.7-1.8-3.3-3.1-4.6-1.4-1.3-3.1-2.2-4.9-2.8-1.8-.6-3.7-.9-5.6-1-3.8-.2-7.6.3-11.4.2-3-.1-6-.7-9.1-.5-1.5.1-3 .4-4.4.9-1.7.6-3 1.5-3.9 2.7"/></defs><clipPath id="SVGID_00000026158724808657609540000004907132761975006622_"><use xlink:href="#SVGID_1_" style="overflow:visible"/></clipPath><path id="path28461-8-7" style="clip-path:url(#SVGID_00000026158724808657609540000004907132761975006622_);fill:#010101;fill-opacity:.2588" d="M89.5 82.1c1.4 3.9 4.1 7.3 7.3 9.9 1.1.9 2.2 1.7 3.5 2.2 1.3.6 2.7.9 4 .8 1.4-.1 2.6-.6 3.8-1.3 1.2-.7 2.3-1.5 3.4-2.2 2-1.2 4.1-2.3 6.1-3.4 2.5-1.3 4.8-2.9 6.9-4.8.9-.9 1.8-1.8 2.9-2.6 1-.7 2.3-1.3 3.6-1.2 1 .1 1.9.5 2.8.7.5.1 1 .2 1.4.1.5-.1.9-.3 1.3-.6.4-.4.6-1 .6-1.6s-.2-1.2-.5-1.7c-.5-1-1.4-1.9-1.8-3.1-.3-1-.3-2.1-.2-3.1 0-1 0-2.1-.5-3.1-.4-.7-1-1.3-1.7-1.6-.7-.4-1.5-.6-2.3-.6-1.6-.1-3.2.2-4.8.3-2.1.1-4.2-.1-6.4 0-2.6.2-5.2.9-7.9.9-3 0-6-1-9-.5-1.3.2-2.5.7-3.7 1.1s-2.5.8-3.8.8c-1.5 0-2.9-.5-4.4-.6-.7-.1-1.5 0-2.2.3s-1.3.7-1.7 1.4c-.2.4-.3.8-.3 1.2 0 .4 0 .8.1 1.3.2.8.6 1.6.9 2.4 1.4 2.6 1.6 5.7 2.6 8.6"/><g><defs><path id="SVGID_00000018231121506037993880000005235281903110741134_" d="M91.4 67.9c-.8 1-1.4 2.3-1.7 3.6-.3 1.3-.4 2.6-.5 4-.1 2.7.1 5.4-.6 8-.8 2.8-2.5 5.2-4.1 7.5-2.9 4-5.8 8.2-7.2 12.9-.9 2.9-1.1 5.9-.8 8.9-3.2 4.7-6 9.8-8.3 15-3.5 7.9-5.9 16.4-6.7 25-1 10.6.3 21.4 4.5 31.2 3 7.1 7.5 13.5 13.3 18.5 2.9 2.6 6.2 4.7 9.7 6.5 12.1 6 27.1 6 39.1-.4 6.2-3.3 11.5-8.2 16.6-13.1 3.1-3 6.1-6 8.4-9.6 4.5-6.9 6.1-15.2 7-23.3 1.7-14.2 1.8-29.3-4.5-42.2-2.1-4.4-5-8.5-8.4-12.1-.9-6.2-2.7-12.3-5.3-18-1.9-4.1-4.2-8-6-12.2-.7-1.7-1.3-3.5-2.1-5.1s-1.8-3.3-3.1-4.6c-1.4-1.3-3.1-2.2-4.9-2.8-1.8-.6-3.7-.9-5.6-1-3.8-.2-7.6.3-11.4.2-3-.1-6-.7-9.1-.5-1.5.1-3 .4-4.4.9-1.7.6-3 1.5-3.9 2.7"/></defs><clipPath id="SVGID_00000076573284285942313760000005393925885114078370_"><use xlink:href="#SVGID_00000018231121506037993880000005235281903110741134_" style="overflow:visible"/></clipPath><path id="path28461-84-3" style="opacity:.3;clip-path:url(#SVGID_00000076573284285942313760000005393925885114078370_);fill:#010101;enable-background:new" d="M85.7 70.9c2.6 1.6 5 3.6 7 5.9 1.8 2.1 3.4 4.5 5.8 6.1 1.7 1.1 3.7 1.7 5.8 1.9 2.4.2 4.9-.1 7.2-.8 2.2-.6 4.3-1.4 6.2-2.5 3.7-2.1 6.7-5.1 10.8-6.5.9-.3 1.8-.5 2.7-.9s1.7-.9 2.1-1.7c.4-.8.4-1.6.5-2.4.1-.9.4-1.7.6-2.6.2-.9.2-1.8-.2-2.6-.3-.7-1-1.2-1.7-1.5s-1.5-.5-2.3-.5c-1.6-.1-3.2.3-4.8.4-2.1.2-4.2-.1-6.4 0-2.6.1-5.2.6-7.9.7-3 .1-6-.3-9-.4-1.3 0-2.6 0-3.9.2-1.3.2-2.5.6-3.6 1.3-1.1.6-1.9 1.5-2.9 2.3-.5.4-1 .7-1.6 1s-1.2.4-1.8.5h-1c-.5.1-1 .4-1.4.8-.2.2-.3.8-.2 1.3"/></g></g><g id="g481"><path id="path29705-5-0" class="st0" d="M165.1 117.1c4.9 3.9 7.9 9.8 8.9 16 .7 4.8.3 9.7-.8 14.5s-2.8 9.3-4.4 13.9c-.7 1.8-1.3 3.7-1.6 5.6-.3 1.9-.1 4 .8 5.7 1.1 2 3 3.3 5.2 3.9 2.1.6 4.4.6 6.5.1s5.7-1.2 7.4-2.6c4.4-3.4 5.4-9.3 6.5-14.6 1.1-5.4.6-11.1-.4-16.6-1.3-7.5-3.5-14.8-6.3-21.9-2.1-5.2-4.7-10.2-7.8-14.8-3.1-4.5-7.4-8.1-10.6-12.5-1.1-1.5-2.5-3.1-3.6-4.7-2.4-3.3-1.8-2.7-3.3-4.9-1.1-1.6-2.7-2.1-4.5-2.8s-3.8-.9-5.6-.4c-2.4.7-4.4 2.6-5.4 4.9s-1.2 4.9-.8 7.4c.5 3.2 2 6.1 3.6 8.9 1.9 3.1 4 6.2 6.8 8.5 2.9 2.4 6.4 4 9.4 6.4"/><path id="path14967-1-0" class="st0" d="M73.6 92.8C68 99.2 62.1 105.4 59 112.4c-1.6 3.5-2.3 7.3-3.4 11-1.2 4.2-2.9 8.3-4.8 12.2-1.7 3.7-3.6 7.2-5.5 10.8-1.4 2.6-2.8 5.3-3.3 8.2-.4 2.3-.2 4.7.4 6.9.6 2.3 1.5 4.4 2.6 6.5 4.5 8.8 11.3 16.5 19.3 22.3 3.6 2.6 7.6 4.9 11.6 6.8 2.2 1 4.6 1.9 7 2 1.2 0 2.5-.2 3.6-.7s2.1-1.3 2.8-2.3c.8-1.3 1.1-2.8.9-4.3-.2-1.5-.7-2.9-1.5-4.2-1.9-3.1-4.9-5.4-7.8-7.6-6.3-4.8-12.3-10-18.1-15.3-1.6-1.5-3.3-3.1-4.4-5-1.1-1.9-1.7-4-2.1-6.1-1.1-5.9-.8-12 1.2-17.7.8-2.2 1.8-4.3 2.8-6.4 1.7-3.7 3.4-7.4 5.6-10.7 2.8-4.2 6.6-7.7 8.9-12.2 1.9-3.8 2.7-8 3.5-12.2.6-3.3 1.7-6.5 2.3-9.8-1.1 2-4.7 5.4-7 8.2z"/></g><g id="g514"><defs><path id="SVGID_00000036945350306434390990000006438326048929220022_" d="M165.1 117.1c4.9 3.9 7.9 9.8 8.9 16 .7 4.8.3 9.7-.8 14.5-1.1 4.7-2.8 9.3-4.4 13.9-.7 1.8-1.3 3.7-1.6 5.6-.3 1.9-.1 4 .8 5.7 1.1 2 3 3.3 5.2 3.9 2.1.6 4.4.6 6.5.1s4.1-1.6 5.8-2.9c4.4-3.4 7.1-8.7 8.1-14.2s.6-11.1-.4-16.6c-1.3-7.5-3.5-14.8-6.3-21.9-2.1-5.2-4.7-10.2-7.8-14.8-3.1-4.5-7.4-8.1-10.6-12.5-1.1-1.5-2.5-3.1-3.6-4.7-2.4-3.3-1.8-2.7-3.3-4.9-1.1-1.6-2.7-2.1-4.5-2.8-1.8-.7-3.8-.9-5.6-.4-2.4.7-4.4 2.6-5.4 4.9s-1.2 4.9-.8 7.4c.5 3.2 2 6.1 3.6 8.9 1.9 3.1 4 6.2 6.8 8.5 2.9 2.3 6.4 3.9 9.4 6.3"/></defs><clipPath id="SVGID_00000093889793892097307760000004701641220400822711_"><use xlink:href="#SVGID_00000036945350306434390990000006438326048929220022_" style="overflow:visible"/></clipPath><path id="path29705-9" style="clip-path:url(#SVGID_00000093889793892097307760000004701641220400822711_);fill:#838385" d="M153.7 109.6c.4.4.8.8 1.2 1.1 3 2.4 4.6 5.2 7.6 7.6 4.9 3.9 10 10.6 10.9 16.8.8 4.8-.2 7.4-1.5 13.1-1.2 5.7-4.7 13.7-6.6 19.1-.7 2.2 1.5 1.3 1.2 3.6-.1 1.1-.2 2.3 0 3.4 0-.2 0-.4.1-.7.4-3.1 1.3-6.1 2.4-9.1 2-5.7 4.3-11.2 5.9-17.1s1.4-10 .6-15c-1-6.3-4.7-12.1-9.9-16-3.7-2.7-8-4.5-11.9-6.8z"/><g><defs><path id="SVGID_00000068678708901389476090000000595389888121424531_" d="M73.6 92.8C68 99.2 62.1 105.4 59 112.4c-1.6 3.5-2.3 7.3-3.4 11-1.2 4.2-2.9 8.3-4.8 12.2-1.7 3.7-3.6 7.2-5.5 10.8-1.4 2.6-2.8 5.3-3.3 8.2-.4 2.3-.2 4.7.4 6.9s1.5 4.4 2.6 6.5c4.5 8.8 11.3 16.5 19.3 22.3 3.6 2.6 7.6 4.9 11.6 6.8 2.2 1 4.6 1.9 7 2 1.2 0 2.5-.2 3.6-.7s2.1-1.3 2.8-2.3c.8-1.3 1.1-2.8.9-4.3-.2-1.5-.7-2.9-1.5-4.2-1.9-3.1-4.9-5.4-7.8-7.6-6.3-4.8-12.3-10-18.1-15.3-1.6-1.5-3.3-3.1-4.4-5-1.1-1.9-1.7-4-2.1-6.1-1.1-5.9-.8-12 1.2-17.7.8-2.2 1.8-4.3 2.8-6.4 1.7-3.7 3.4-7.4 5.6-10.7 2.8-4.2 6.6-7.7 8.9-12.2 1.9-3.8 2.7-8 3.5-12.2.6-3.3 1.7-6.5 2.3-9.8-1.1 2-4.7 5.4-7 8.2z"/></defs><clipPath id="SVGID_00000109002984206511979720000007174868398595095472_"><use xlink:href="#SVGID_00000068678708901389476090000000595389888121424531_" style="overflow:visible"/></clipPath><path id="path15007-0" style="opacity:.95;clip-path:url(#SVGID_00000109002984206511979720000007174868398595095472_);fill:#7d7d7d;enable-background:new" d="M67.1 116.1c-1.9 1.7-3.5 3.7-4.7 5.8-2.1 3.6-3.4 7.6-4.9 11.4-1.2 2.9-2.5 5.7-2.7 8.8-.1 1.6.2 3.2.2 4.7.1 1.6-.1 3.2-.9 4.6-.6 1.2-1.7 2.1-3 2.5 1.7.6 3.2 1.7 4.3 3.1.9 1.2 1.5 2.6 2.2 3.9.6 1 1.4 2 2.3 2.7.9.8 2.1 1.3 3.3 1.4 1.6.2 3.4-.3 4.6-1.5-1.5-14.4-.1-29.1 4.1-42.9.3-.9.5-1.8.6-2.7.1-.9-.1-1.9-.7-2.6-.3-.4-.7-.7-1.1-.9-.4-.2-.9-.3-1.4-.2-.5.1-1 .2-1.3.5-.3.6-.7 1-.9 1.4"/></g></g><g id="g457"><g id="g444"><linearGradient id="path14483-7-4_00000057137222049866964560000011027256755302779288_" gradientUnits="userSpaceOnUse" x1="279.502" y1="869.845" x2="282.451" y2="891.853" gradientTransform="matrix(1.0269 0 0 1 -120.13 -676.362)"><stop offset="0" style="stop-color:#010101"/><stop offset="1" style="stop-color:#010101;stop-opacity:0"/></linearGradient><path id="path14483-7-4" style="opacity:.2;fill:url(#path14483-7-4_00000057137222049866964560000011027256755302779288_);enable-background:new" d="M197.8 199c-.4 1.2-.9 2.4-1.7 3.5-1.6 2.4-4 4.2-6.3 5.9-4 2.8-8.2 5.5-11.9 8.7-2.5 2.2-4.8 4.6-6.9 7.2-1.8 2.2-3.5 4.5-5.6 6.4-2.1 2-4.5 3.5-7.2 4.4-3.2 1.1-6.6 1-9.7.2-2.2-.6-4.3-1.5-5.6-3.3s-1.8-4.1-1.9-6.4c-.3-4.1.2-8.3.7-12.4.4-3.5.7-6.9.9-10.3.3-6.3-.2-12.5-1-18.6-.1-1-.3-2-.2-3.1s.4-2.1 1.2-3c.7-.7 1.6-1.2 2.6-1.4.9-.2 1.9-.2 2.9-.3 2.2-.1 4.5-.2 6.7 0 1.4.1 2.8.4 4.2.5 2.3.2 4.7.1 7.1-.6 2.5-.7 4.9-2.1 7.5-2.5 1-.2 2.1-.1 3.1 0s2.1.4 2.9 1.1c.6.5 1.1 1.1 1.4 1.8.5 1.1.8 2.2 1 3.4.2 1.1.2 2.1.5 3.2.4 1.7 1.5 3.1 2.7 4.3s2.6 2.1 4.1 3c1.4.9 2.8 1.8 4.4 2.5.7.3 1.4.7 2.1 1.1.7.4 1.3.9 1.8 1.5.1.9.3 2.1.2 3.2"/><linearGradient id="path14296-0_00000053547583327824905460000006828737614955656845_" gradientUnits="userSpaceOnUse" x1="386.329" y1="908.558" x2="424.69" y2="846.362" gradientTransform="translate(-234 -676.362)"><stop offset="0" style="stop-color:#3d2c13"/><stop offset="1" style="stop-color:#ac7a2b"/></linearGradient><path id="path14296-0" style="fill:url(#path14296-0_00000053547583327824905460000006828737614955656845_)" d="M211.4 205.8c-2.1 2.5-5 4.1-7.9 5.6-4.9 2.5-10.1 4.7-14.7 7.8-3.1 2-6 4.4-8.7 7-2.3 2.2-4.5 4.5-7 6.4-2.6 1.9-5.6 3.2-8.8 3.7-3.9.6-7.8-.2-11.4-1.7-2.5-1.1-4.9-2.7-6.4-5-1.4-2.3-1.8-5.2-1.8-7.9 0-4.8.9-9.6 1.7-14.4.7-4 1.4-7.9 1.8-11.9.8-7.3.8-14.6.3-22-.1-1.2-.2-2.5 0-3.7s.7-2.4 1.6-3.2c.9-.7 2-1.1 3.1-1.1 1.1-.1 2.3.1 3.4.3 2.6.4 5.3.7 7.9 1.4 1.6.4 3.2 1 4.8 1.4 2.7.7 5.6 1.1 8.4.8 3-.4 5.9-1.5 9-1.4 1.2 0 2.5.3 3.7.6 1.2.4 2.4.9 3.3 1.8.7.7 1.1 1.6 1.5 2.4.5 1.3.8 2.8.9 4.2.1 1.3.1 2.5.3 3.8.4 2.1 1.5 3.9 2.8 5.5s2.9 3 4.5 4.3 3.2 2.7 4.9 3.9c.8.6 1.6 1.1 2.4 1.7s1.5 1.3 2 2.2c.7 1.2.8 2.6.4 3.9-.3 1.2-1 2.4-2 3.6z"/><defs><path id="SVGID_00000183961869344014883450000011965577564262256256_" d="M211.4 205.8c-2.1 2.5-5 4.1-7.9 5.6-4.9 2.5-10.1 4.7-14.7 7.8-3.1 2-6 4.4-8.7 7-2.3 2.2-4.5 4.5-7 6.4-2.6 1.9-5.6 3.2-8.8 3.7-3.9.6-7.8-.2-11.4-1.7-2.5-1.1-4.9-2.7-6.4-5-1.4-2.3-1.8-5.2-1.8-7.9 0-4.8.9-9.6 1.7-14.4.7-4 1.4-7.9 1.8-11.9.8-7.3.8-14.6.3-22-.1-1.2-.2-2.5 0-3.7s.7-2.4 1.6-3.2c.9-.7 2-1.1 3.1-1.1 1.1-.1 2.3.1 3.4.3 2.6.4 5.3.7 7.9 1.4 1.6.4 3.2 1 4.8 1.4 2.7.7 5.6 1.1 8.4.8 3-.4 5.9-1.5 9-1.4 1.2 0 2.5.3 3.7.6 1.2.4 2.4.9 3.3 1.8.7.7 1.1 1.6 1.5 2.4.5 1.3.8 2.8.9 4.2.1 1.3.1 2.5.3 3.8.4 2.1 1.5 3.9 2.8 5.5s2.9 3 4.5 4.3 3.2 2.7 4.9 3.9c.8.6 1.6 1.1 2.4 1.7.8.6 1.5 1.3 2 2.2.7 1.2.8 2.6.4 3.9-.3 1.2-1 2.4-2 3.6z"/></defs><clipPath id="SVGID_00000144339633472086801600000001684139177514718141_"><use xlink:href="#SVGID_00000183961869344014883450000011965577564262256256_" style="overflow:visible"/></clipPath><path id="path14296-3-7" style="clip-path:url(#SVGID_00000144339633472086801600000001684139177514718141_);fill:#cc8a2a" d="M211.2 199.5c-.5 1.2-1.2 2.4-2.1 3.4-1.9 2.2-4.6 3.7-7.2 5-4.5 2.3-9.2 4.2-13.4 7-2.8 1.8-5.5 4-7.9 6.3-2.1 2-4.1 4.1-6.4 5.8-2.4 1.7-5.1 2.9-8 3.3-3.5.5-7.1-.2-10.4-1.6-2.3-1-4.5-2.4-5.8-4.5s-1.6-4.7-1.6-7.1c0-4.4.8-8.7 1.6-13 .6-3.6 1.3-7.1 1.6-10.7.7-6.5.7-13.2.2-19.7-.1-1.1-.2-2.2 0-3.3s.6-2.2 1.5-2.9c.8-.7 1.8-1 2.9-1 1-.1 2.1.1 3.1.3 2.4.4 4.8.6 7.2 1.2 1.5.4 2.9.9 4.4 1.3 2.5.7 5.1 1 7.6.7 2.7-.3 5.4-1.3 8.2-1.3 1.1 0 2.3.2 3.3.6 1.1.3 2.2.8 3 1.6.6.6 1 1.4 1.4 2.2.5 1.2.8 2.5.9 3.8 0 1.4-.3 2.7-.1 4 .1 1.1.6 2.1 1.2 3s1.3 1.8 2 2.6c1.4 1.6 2.7 3.3 4.5 4.5 2 1.4 4.3 2.2 6.3 3.6.6.4 1.2.8 1.6 1.4.6 1 .8 2.3.4 3.5"/><g><defs><path id="SVGID_00000121997336242486760350000002665792650728188561_" d="M211.4 205.8c-2.1 2.5-5 4.1-7.9 5.6-4.9 2.5-10.1 4.7-14.7 7.8-3.1 2-6 4.4-8.7 7-2.3 2.2-4.5 4.5-7 6.4-2.6 1.9-5.6 3.2-8.8 3.7-3.9.6-7.8-.2-11.4-1.7-2.5-1.1-4.9-2.7-6.4-5-1.4-2.3-1.8-5.2-1.8-7.9 0-4.8.9-9.6 1.7-14.4.7-4 1.4-7.9 1.8-11.9.8-7.3.8-14.6.3-22-.1-1.2-.2-2.5 0-3.7s.7-2.4 1.6-3.2c.9-.7 2-1.1 3.1-1.1 1.1-.1 2.3.1 3.4.3 2.6.4 5.3.7 7.9 1.4 1.6.4 3.2 1 4.8 1.4 2.7.7 5.6 1.1 8.4.8 3-.4 5.9-1.5 9-1.4 1.2 0 2.5.3 3.7.6 1.2.4 2.4.9 3.3 1.8.7.7 1.1 1.6 1.5 2.4.5 1.3.8 2.8.9 4.2.1 1.3.1 2.5.3 3.8.4 2.1 1.5 3.9 2.8 5.5s2.9 3 4.5 4.3 3.2 2.7 4.9 3.9c.8.6 1.6 1.1 2.4 1.7.8.6 1.5 1.3 2 2.2.7 1.2.8 2.6.4 3.9-.3 1.2-1 2.4-2 3.6z"/></defs><clipPath id="SVGID_00000026866401208322883670000000798262428747584401_"><use xlink:href="#SVGID_00000121997336242486760350000002665792650728188561_" style="overflow:visible"/></clipPath><path id="path14296-3-1-9" style="clip-path:url(#SVGID_00000026866401208322883670000000798262428747584401_);fill:#f4c021" d="M210.9 198.1c-.5 1.2-1.3 2.4-2.1 3.4-2 2.4-4.6 4-7.4 5.1-4.6 1.7-9.6 2-14.1 3.9-2.8 1.2-5.2 3-7.7 4.7-2 1.4-4.1 2.7-6.3 3.7-2.5 1.1-5.2 1.7-7.9 2.1-1.7.3-3.4.5-5.2.4-1.7-.1-3.5-.5-5-1.4-1.2-.7-2.2-1.6-2.8-2.9-.7-1.4-.8-3-.8-4.6 0-4.2.9-8.3.9-12.5 0-3.6-.7-7.2-1-10.8-.4-7 1.1-14.1-.2-20.9-.2-1.1-.5-2.2-.5-3.3 0-.6.1-1.1.3-1.6s.5-1 .9-1.3.8-.4 1.2-.5.9-.1 1.3 0c.9.1 1.7.5 2.5.7 2.4.7 5 .7 7.4 1.2 1.5.3 3 .9 4.5 1.3 2.6.7 5.2 1 7.8.7 2.8-.3 5.6-1.4 8.4-1.3 1.2 0 2.3.2 3.4.6 1.1.3 2.2.8 3.1 1.7.6.6 1 1.4 1.4 2.2.5 1.2.9 2.5.9 3.8 0 .7-.1 1.4-.2 2-.1.7-.1 1.4.1 2 .2.7.5 1.3.9 1.8s.8 1 1.2 1.6c1.1 1.5 1.9 3.2 2.8 4.9s1.9 3.3 3.3 4.5c1.9 1.6 4.4 2.3 6.5 3.6.6.4 1.2.8 1.7 1.4.3.5.6 1.1.7 1.7.3.9.2 1.5 0 2.1"/></g><g><defs><path id="SVGID_00000164493876112555026640000012643500156739869588_" d="M211.4 205.8c-2.1 2.5-5 4.1-7.9 5.6-4.9 2.5-10.1 4.7-14.7 7.8-3.1 2-6 4.4-8.7 7-2.3 2.2-4.5 4.5-7 6.4-2.6 1.9-5.6 3.2-8.8 3.7-3.9.6-7.8-.2-11.4-1.7-2.5-1.1-4.9-2.7-6.4-5-1.4-2.3-1.8-5.2-1.8-7.9 0-4.8.9-9.6 1.7-14.4.7-4 1.4-7.9 1.8-11.9.8-7.3.8-14.6.3-22-.1-1.2-.2-2.5 0-3.7s.7-2.4 1.6-3.2c.9-.7 2-1.1 3.1-1.1 1.1-.1 2.3.1 3.4.3 2.6.4 5.3.7 7.9 1.4 1.6.4 3.2 1 4.8 1.4 2.7.7 5.6 1.1 8.4.8 3-.4 5.9-1.5 9-1.4 1.2 0 2.5.3 3.7.6 1.2.4 2.4.9 3.3 1.8.7.7 1.1 1.6 1.5 2.4.5 1.3.8 2.8.9 4.2.1 1.3.1 2.5.3 3.8.4 2.1 1.5 3.9 2.8 5.5s2.9 3 4.5 4.3 3.2 2.7 4.9 3.9c.8.6 1.6 1.1 2.4 1.7s1.5 1.3 2 2.2c.7 1.2.8 2.6.4 3.9-.3 1.2-1 2.4-2 3.6z"/></defs><clipPath id="SVGID_00000071558740585424329210000002017594724539070346_"><use xlink:href="#SVGID_00000164493876112555026640000012643500156739869588_" style="overflow:visible"/></clipPath><linearGradient id="path16493_00000098213699777387580300000008767433202233276308_" gradientUnits="userSpaceOnUse" x1="306.338" y1="845.822" x2="305.209" y2="855.976" gradientTransform="translate(-134 -678.362)"><stop offset="0" style="stop-color:#f3cd16"/><stop offset="1" style="stop-color:#f3cd16;stop-opacity:0"/></linearGradient><path id="path16493" style="clip-path:url(#SVGID_00000071558740585424329210000002017594724539070346_);fill:url(#path16493_00000098213699777387580300000008767433202233276308_)" d="M150.9 167.5c2.6-.7 4.8 1.3 6.7 2.8 1.2 1 3 .8 4.5.8 2.5-.1 5 .4 7.5.1 4.9-.4 9.7-1.6 14.6-1.8 2.4-.1 5-.3 7 1.1.8.6 2 3 2.8 2.1-.3-2.5-2.2-5-4.7-5.7-2-.3-4 .2-6 .1-5.9-.1-11.8-1.2-17.7-.9-4.1 0-8.3-.2-12.4-.3-1.6-.3-2.2 1.1-3.1 1.7"/></g></g><g id="g411"><linearGradient id="path4635-1_00000019638401609926862520000000851177748020355463_" gradientUnits="userSpaceOnUse" x1="96.166" y1="856.362" x2="134.245" y2="920.25" gradientTransform="translate(-64 -676.362)"><stop offset="0" style="stop-color:#b8842c"/><stop offset="1" style="stop-color:#372813"/></linearGradient><path id="path4635-1" style="fill:url(#path4635-1_00000019638401609926862520000000851177748020355463_)" d="M47.4 161.4c1.3-.5 2.7-.6 4.1-.4 1.4.3 2.6.8 3.8 1.6 2.3 1.6 4 3.8 5.6 6 3.7 5.1 7.3 10.4 10.6 15.8 2.6 4.4 5.1 9 8.1 13.1 2 2.7 4.2 5.2 6.2 7.9s3.8 5.6 4.7 8.9c1.2 4.2.7 8.8-1.3 12.7-1.4 2.7-3.6 5.1-6.2 6.7-2.6 1.6-5.7 2.4-8.8 2.3-4.9-.2-9.3-2.6-13.9-4.4-9.2-3.7-19.3-4.8-28.8-7.7-2.9-.9-5.8-1.9-8.8-2.7-1.3-.4-2.6-.7-3.9-1.2-1.2-.6-2.4-1.4-3.1-2.6-.5-.9-.8-2-.7-3s.3-2.1.6-3.1c.7-2 1.9-3.8 2.6-5.7 1.3-3.2 1.5-6.7 1.3-10.1-.2-3.4-.7-6.8-1-10.2-.1-1.5-.1-3.1.1-4.6s.9-3 2-4c1-1 2.4-1.6 3.7-1.8 1.4-.3 2.8-.3 4.2-.3 1.4 0 2.8.1 4.2 0 1.4-.1 2.8-.4 4-1.1 1.2-.7 2.1-1.7 2.9-2.7.8-1.1 1.4-2.3 2.1-3.4.7-1.2 1.3-2.3 2.2-3.4s2.3-2.1 3.5-2.6"/><defs><path id="SVGID_00000090292103738464859220000000435077562097269168_" d="M47.4 161.4c1.3-.5 2.7-.6 4.1-.4 1.4.3 2.6.8 3.8 1.6 2.3 1.6 4 3.8 5.6 6 3.7 5.1 7.3 10.4 10.6 15.8 2.6 4.4 5.1 9 8.1 13.1 2 2.7 4.2 5.2 6.2 7.9s3.8 5.6 4.7 8.9c1.2 4.2.7 8.8-1.3 12.7-1.4 2.7-3.6 5.1-6.2 6.7-2.6 1.6-5.7 2.4-8.8 2.3-4.9-.2-9.3-2.6-13.9-4.4-9.2-3.7-19.3-4.8-28.8-7.7-2.9-.9-5.8-1.9-8.8-2.7-1.3-.4-2.6-.7-3.9-1.2-1.2-.6-2.4-1.4-3.1-2.6-.5-.9-.8-2-.7-3 0-1 .3-2.1.6-3.1.7-2 1.9-3.8 2.6-5.7 1.3-3.2 1.5-6.7 1.3-10.1-.2-3.4-.7-6.8-1-10.2-.1-1.5-.1-3.1.1-4.6.3-1.5.9-3 2-4 1-1 2.4-1.6 3.7-1.8 1.4-.3 2.8-.3 4.2-.3 1.4 0 2.8.1 4.2 0 1.4-.1 2.8-.4 4-1.1 1.2-.7 2.1-1.7 2.9-2.7.8-1.1 1.4-2.3 2.1-3.4.7-1.2 1.3-2.3 2.2-3.4s2.3-2.1 3.5-2.6"/></defs><clipPath id="SVGID_00000007396359239959714670000016596967952451670690_"><use xlink:href="#SVGID_00000090292103738464859220000000435077562097269168_" style="overflow:visible"/></clipPath><path id="path13596-6" style="clip-path:url(#SVGID_00000007396359239959714670000016596967952451670690_);fill:#d79a28" d="M49.4 163.6c1.2-.5 2.5-.5 3.7-.2s2.4.9 3.3 1.6c2 1.5 3.4 3.7 4.7 5.8 3.2 5.1 6.3 10.3 9.2 15.6 2.2 4 4.3 8.1 7.1 11.7 1.8 2.4 3.9 4.7 5.7 7 1.8 2.4 3.5 5 4.3 7.9 1.1 3.8.6 7.9-1.2 11.4-1.3 2.5-3.3 4.6-5.7 6s-5.2 2.1-8 2c-4.5-.2-8.5-2.4-12.7-3.9-8.1-2.9-16.8-3.3-25.1-5.6-3-.8-5.9-1.9-8.8-2.6-1.3-.3-2.7-.6-3.9-1.1-1.3-.5-2.4-1.3-3.1-2.5-.5-.9-.7-1.9-.7-2.9s.3-2 .6-2.9c.7-1.9 1.9-3.6 2.6-5.5 1.1-2.9 1.2-6 1-9s-.7-6.1-.9-9.1c-.1-1.4-.1-2.7.2-4.1.3-1.3.9-2.6 1.8-3.6 1.1-1 2.5-1.6 4-1.8s3-.1 4.4 0c1.5.1 3 .3 4.4.2 1.5-.1 3-.4 4.2-1.3 1.1-.8 2-1.9 2.6-3 .6-1.2 1.1-2.4 1.6-3.7.5-1.2 1-2.5 1.8-3.6.6-1.3 1.7-2.3 2.9-2.8"/><defs><path id="SVGID_00000080912314362773991110000012056057543444676024_" d="M47.4 161.4c1.3-.5 2.7-.6 4.1-.4 1.4.3 2.6.8 3.8 1.6 2.3 1.6 4 3.8 5.6 6 3.7 5.1 7.3 10.4 10.6 15.8 2.6 4.4 5.1 9 8.1 13.1 2 2.7 4.2 5.2 6.2 7.9s3.8 5.6 4.7 8.9c1.2 4.2.7 8.8-1.3 12.7-1.4 2.7-3.6 5.1-6.2 6.7-2.6 1.6-5.7 2.4-8.8 2.3-4.9-.2-9.3-2.6-13.9-4.4-9.2-3.7-19.3-4.8-28.8-7.7-2.9-.9-5.8-1.9-8.8-2.7-1.3-.4-2.6-.7-3.9-1.2-1.2-.6-2.4-1.4-3.1-2.6-.5-.9-.8-2-.7-3 0-1 .3-2.1.6-3.1.7-2 1.9-3.8 2.6-5.7 1.3-3.2 1.5-6.7 1.3-10.1-.2-3.4-.7-6.8-1-10.2-.1-1.5-.1-3.1.1-4.6.3-1.5.9-3 2-4 1-1 2.4-1.6 3.7-1.8 1.4-.3 2.8-.3 4.2-.3 1.4 0 2.8.1 4.2 0 1.4-.1 2.8-.4 4-1.1 1.2-.7 2.1-1.7 2.9-2.7.8-1.1 1.4-2.3 2.1-3.4.7-1.2 1.3-2.3 2.2-3.4s2.3-2.1 3.5-2.6"/></defs><clipPath id="SVGID_00000121251842732156570970000017018032290253733289_"><use xlink:href="#SVGID_00000080912314362773991110000012056057543444676024_" style="overflow:visible"/></clipPath><path id="path4635-2-4" style="clip-path:url(#SVGID_00000121251842732156570970000017018032290253733289_);fill:#f4bd18" d="M48.3 160.7c1.1-.6 2.4-.7 3.7-.4 1.2.3 2.4.9 3.3 1.6 1.9 1.6 3.2 3.8 4.3 6 2.6 5.1 5.1 10.2 8.2 15 2.3 3.5 4.9 6.7 7.2 10.1 3.1 4.7 5.7 9.8 6.7 15.3.7 3.7.7 7.7-1.1 11-1.2 2.2-3.1 4-5.3 5.1s-4.8 1.6-7.3 1.4c-4-.3-7.5-2.3-11.3-3.6-6.6-2.4-13.7-3-20.5-4.8-2.9-.8-5.7-1.8-8.6-2.4-1.3-.3-2.6-.5-3.8-.9-1.2-.5-2.4-1.2-3-2.4-.4-.8-.6-1.7-.5-2.6.1-.9.3-1.8.7-2.6.7-1.7 1.8-3.2 2.3-4.9.8-2.5.5-5.3-.1-7.9-.6-2.6-1.5-5.1-1.8-7.8-.1-1.2-.1-2.4.2-3.5.3-1.2.8-2.3 1.7-3.1 1.1-1.1 2.7-1.6 4.2-1.7 1.5-.1 3.1.1 4.6.3 1.5.2 3.1.5 4.6.4 1.6-.1 3.1-.5 4.4-1.4 1.2-.9 2-2.3 2.4-3.8.4-1.4.6-3 .8-4.5.2-1.5.4-3 1-4.4.7-1.5 1.7-2.8 3-3.5"/><linearGradient id="path4792-8_00000178907339432301523720000017461429676698459780_" gradientUnits="userSpaceOnUse" x1="138.81" y1="872.322" x2="150.798" y2="894.887" gradientTransform="translate(-64.53 -678.13)"><stop offset="0" style="stop-color:#eac41d"/><stop offset="1" style="stop-color:#eac41d;stop-opacity:0"/></linearGradient><path id="path4792-8" style="fill:url(#path4792-8_00000178907339432301523720000017461429676698459780_)" d="M62.4 173.3c2.1 3.8 3.3 8.1 5.4 11.9 1.9 3.5 4.1 7.1 6 10.3.9 1.4 2.9 3.6 4.9 7.1 1.8 3.1 3.7 7.4 4.7 8.9-.6-1.7-1.8-6.3-3.3-9.5-1.4-3-3-4.8-3.9-6.4-1.9-3.2-4-6.1-6-9.2-2.7-4.3-4.8-9-7.8-13.1z"/></g></g><g id="g526"><radialGradient id="path29714-8-2_00000129168382208960050190000003523031518720014995_" cx="179.309" cy="501.331" r="13.439" gradientTransform="matrix(1.3082 .3505 -.368 1.3732 121.452 -571.793)" gradientUnits="userSpaceOnUse"><stop offset="0" style="stop-color:#16100b"/><stop offset=".591" style="stop-color:#a65d26;stop-opacity:.8"/><stop offset="1" style="stop-color:#f79226;stop-opacity:0"/></radialGradient><path id="path29714-8-2" style="opacity:.35;fill:url(#path29714-8-2_00000129168382208960050190000003523031518720014995_);enable-background:new" d="M186.1 173.1c-.4-.9-1.3-1.5-2.2-1.9-.9-.4-1.9-.5-2.9-.5-2 0-3.9.5-5.9.4-1.7-.1-3.2-.8-4.9-1.2s-3.4-.6-5.1-.1c-1.8.5-3.3 1.7-4.3 3.2-.9 1.4-1.3 3-1.4 4.6-.1 1.6 0 3.2.2 4.9.1 1.2.3 2.3.5 3.5.3 1.1.7 2.3 1.4 3.2 1 1.4 2.5 2.3 4 2.9 2.6 1 5.5.9 8.1-.1 4.5-2 8.3-5.5 10.7-9.8.8-1.6 1.5-3.2 1.9-4.9.2-.7.3-1.4.3-2.1.1-.8 0-1.5-.4-2.1"/><radialGradient id="path29714-8-3-0_00000108270487672577154030000015381601968861819788_" cx="225.023" cy="663.851" r="13.439" gradientTransform="matrix(1.3082 .2534 -.368 .9927 121.452 -540.828)" gradientUnits="userSpaceOnUse"><stop offset="0" style="stop-color:#16100b"/><stop offset=".591" style="stop-color:#a65d26;stop-opacity:.8"/><stop offset="1" style="stop-color:#f79226;stop-opacity:0"/></radialGradient><path id="path29714-8-3-0" style="opacity:.35;fill:url(#path29714-8-3-0_00000108270487672577154030000015381601968861819788_);enable-background:new" d="M186.1 170.6c-.4-.6-1.3-1.1-2.2-1.4s-1.9-.4-2.9-.4c-2 0-3.9.4-5.9.3-1.7-.1-3.2-.6-4.9-.8-1.7-.3-3.4-.4-5.1-.1-1.8.3-3.3 1.2-4.3 2.3-.9 1-1.3 2.2-1.4 3.3s0 2.3.2 3.5c.1.8.3 1.7.5 2.5s.7 1.6 1.4 2.3c1 1 2.5 1.7 4 2.1 2.6.7 5.5.7 8.1-.1 4.5-1.4 8.3-4 10.7-7.1.8-1.1 1.5-2.3 1.9-3.6.2-.5.3-1 .3-1.5.1-.4 0-.9-.4-1.3"/></g><g id="g545"><path id="path29714-5-4" class="st0" d="M189.9 164.9c-.3-.9-.9-1.7-1.6-2.3s-1.5-1.1-2.4-1.5c-1.7-.7-3.6-1-5.5-1.4-1.7-.3-3.5-.7-5.2-1-1.8-.3-3.7-.5-5.5-.1-1.6.4-3 1.2-4.2 2.2s-2.1 2.4-2.8 3.9c-1.2 2.6-1.5 5.5-1.3 8.3.2 2.1.7 4.3 2.1 5.9 1.1 1.3 2.7 2.1 4.3 2.6 2.8.8 5.9.8 8.7-.1 4.6-1.5 8.7-4.6 11.4-8.6.9-1.3 1.7-2.8 2-4.3.4-1.2.4-2.5 0-3.6"/><defs><path id="SVGID_00000044143490886079750590000002241206397806835864_" d="M189.9 164.9c-.3-.9-.9-1.7-1.6-2.3s-1.5-1.1-2.4-1.5c-1.7-.7-3.6-1-5.5-1.4-1.7-.3-3.5-.7-5.2-1-1.8-.3-3.7-.5-5.5-.1-1.6.4-3 1.2-4.2 2.2s-2.1 2.4-2.8 3.9c-1.2 2.6-1.5 5.5-1.3 8.3.2 2.1.7 4.3 2.1 5.9 1.1 1.3 2.7 2.1 4.3 2.6 2.8.8 5.9.8 8.7-.1 4.6-1.5 8.7-4.6 11.4-8.6.9-1.3 1.7-2.8 2-4.3.4-1.2.4-2.5 0-3.6"/></defs><clipPath id="SVGID_00000137129795023238407100000003678899879621502097_"><use xlink:href="#SVGID_00000044143490886079750590000002241206397806835864_" style="overflow:visible"/></clipPath><radialGradient id="path29714-3-9-9_00000016050224391838046590000014413231843829204392_" cx="2089.428" cy="1462.589" r="16.385" gradientTransform="matrix(.3603 .1568 -.07247 .1665 -461.475 -408.166)" gradientUnits="userSpaceOnUse"><stop offset="0" style="stop-color:#7d7d7d"/><stop offset="1" style="stop-color:#7d7d7d;stop-opacity:.3294"/></radialGradient><path id="path29714-3-9-9" style="clip-path:url(#SVGID_00000137129795023238407100000003678899879621502097_);fill:url(#path29714-3-9-9_00000016050224391838046590000014413231843829204392_)" d="M170.8 157.8c-.4 0-.9.1-1.3.1-2.8.5-5.3 2.2-6.7 4.7-1 1.7-1.5 3.7-1.3 5.7.1-1.4.4-2.7 1.1-4 1.1-2.1 3.2-3.6 5.5-4 1.4-.3 2.9-.1 4.3.1s2.8.4 4.1.6c2.1.5 4.2 1.2 6 2.4.4.3.8.6 1.1 1 .3.4.6.8.7 1.3.1.7-.1 1.5-.4 2.1-.4.6-.8 1.2-1.4 1.7-.4.4-.9.8-1.3 1.2 2-.4 4.1-1 5.8-2.1.7-.5 1.4-1.1 1.8-1.9.4-.8.6-1.7.4-2.5-.1-.6-.5-1.1-.8-1.5s-.9-.8-1.3-1.1c-2.1-1.5-4.6-2.5-7.2-2.8-1.7-.3-3.3-.6-5-.8-1.5-.2-2.8-.3-4.1-.2z"/><g><defs><path id="SVGID_00000069387418378147774470000000601395319619368879_" d="M189.9 164.9c-.3-.9-.9-1.7-1.6-2.3s-1.5-1.1-2.4-1.5c-1.7-.7-3.6-1-5.5-1.4-1.7-.3-3.5-.7-5.2-1-1.8-.3-3.7-.5-5.5-.1-1.6.4-3 1.2-4.2 2.2-1.2 1.1-2.1 2.4-2.8 3.9-1.2 2.6-1.5 5.5-1.3 8.3.2 2.1.7 4.3 2.1 5.9 1.1 1.3 2.7 2.1 4.3 2.6 2.8.8 5.9.8 8.7-.1 4.6-1.5 8.7-4.6 11.4-8.6.9-1.3 1.7-2.8 2-4.3.4-1.2.4-2.5 0-3.6"/></defs><clipPath id="SVGID_00000099663787929282877430000016415529761824211631_"><use xlink:href="#SVGID_00000069387418378147774470000000601395319619368879_" style="overflow:visible"/></clipPath><linearGradient id="path29714-3-9-3-8_00000075148980474269507300000000051975209808720040_" gradientUnits="userSpaceOnUse" x1="301.99" y1="840.943" x2="304.382" y2="840.843" gradientTransform="translate(-134 -676.362)"><stop offset="0" style="stop-color:#7d7d7d"/><stop offset="1" style="stop-color:#7d7d7d;stop-opacity:.3294"/></linearGradient><path id="path29714-3-9-3-8" style="clip-path:url(#SVGID_00000099663787929282877430000016415529761824211631_);fill:url(#path29714-3-9-3-8_00000075148980474269507300000000051975209808720040_)" d="M170.8 157.8c-.4 0-.9.1-1.3.1-2.8.5-5.3 2.2-6.7 4.7-1 1.7-1.5 3.7-1.3 5.7.1-1.4.4-2.7 1.1-4 1.1-2.1 3.2-3.6 5.5-4 1.4-.3 2.9-.1 4.3.1s2.8.4 4.1.6c2.1.5 4.2 1.2 6 2.4.4.3.8.6 1.1 1 .3.4.6.8.7 1.3.1.7-.1 1.5-.4 2.1-.4.6-.8 1.2-1.4 1.7-.4.4-.9.8-1.3 1.2 2-.4 4.1-1 5.8-2.1.7-.5 1.4-1.1 1.8-1.9.4-.8.6-1.7.4-2.5-.1-.6-.5-1.1-.8-1.5s-.9-.8-1.3-1.1c-2.1-1.5-4.6-2.5-7.2-2.8-1.7-.3-3.3-.6-5-.8-1.5-.2-2.8-.3-4.1-.2z"/></g></g><g id="g777"><g id="g669"><g id="g643"><radialGradient id="path28795-9-5_00000170260177390653991410000007888729736631567239_" cx="362.994" cy="622.417" r="11.626" gradientTransform="matrix(.8152 -.03431 .02961 1.248 -219.874 -717.325)" gradientUnits="userSpaceOnUse"><stop offset="0" style="stop-color:#fffffd"/><stop offset=".757" style="stop-color:#fffffd"/><stop offset="1" style="stop-color:#d4d4d4"/></radialGradient><path id="path28795-9-5" style="fill:url(#path28795-9-5_00000170260177390653991410000007888729736631567239_)" d="M92.6 34.8c-1.4.1-2.8.7-3.8 1.7s-1.8 2.2-2.2 3.6c-.9 2.7-.7 5.6-.5 8.5.2 2.6.4 5.2 1.3 7.6.5 1.2 1.2 2.3 2.1 3.2.9.9 2 1.6 3.3 1.9 1.2.3 2.4.2 3.6-.1 1.2-.4 2.2-1 3.1-1.9 1.3-1.2 2.1-2.8 2.6-4.5s.6-3.5.6-5.2c0-2.2-.3-4.4-1-6.5s-1.8-4.1-3.3-5.7c-.7-.8-1.6-1.4-2.6-1.9-1.1-.5-2.1-.7-3.2-.7"/><g id="g605"><path id="path29453-9" class="st0" d="M89.2 46.6c-.3 1.8-.3 3.7.3 5.4.4 1.1 1.1 2.2 1.9 3 .5.6 1.1 1.1 1.8 1.4s1.5.5 2.3.3c.7-.2 1.3-.6 1.8-1.2s.8-1.2 1-1.9c.6-2 .5-4.3-.1-6.3-.5-1.5-1.2-2.9-2.4-3.9-.6-.5-1.2-.9-2-1-.7-.2-1.5-.1-2.2.2-.8.3-1.3 1-1.7 1.7s-.6 1.5-.7 2.3"/><linearGradient id="path29465-8_00000103263322727537217430000004789305082417510573_" gradientUnits="userSpaceOnUse" x1="126.586" y1="718.867" x2="131.24" y2="727.188" gradientTransform="translate(-34 -676.362)"><stop offset="0" style="stop-color:#767675;stop-opacity:0"/><stop offset=".263" style="stop-color:#767675"/><stop offset=".5" style="stop-color:#767675"/><stop offset="1" style="stop-color:#767675;stop-opacity:0"/></linearGradient><path id="path29465-8" style="fill:url(#path29465-8_00000103263322727537217430000004789305082417510573_)" d="M93 45.3c.2.5.8.7 1.2 1.1.3.4.7.8.9 1.3.4.9-.4 2.3.4 3 .2.2.7.2.9 0 .9-.8.7-2.5.3-3.7-.3-1.1-1.1-2.1-2.1-2.6-.5-.2-1.2-.4-1.6-.1-.2.2-.2.7 0 1z"/></g><defs><path id="SVGID_00000101799378705710162310000014481959997948590769_" d="M92.6 34.8c-1.4.1-2.8.7-3.8 1.7s-1.8 2.2-2.2 3.6c-.9 2.7-.7 5.6-.5 8.5.2 2.6.4 5.2 1.3 7.6.5 1.2 1.2 2.3 2.1 3.2.9.9 2 1.6 3.3 1.9 1.2.3 2.4.2 3.6-.1 1.2-.4 2.2-1 3.1-1.9 1.3-1.2 2.1-2.8 2.6-4.5s.6-3.5.6-5.2c0-2.2-.3-4.4-1-6.5s-1.8-4.1-3.3-5.7c-.7-.8-1.6-1.4-2.6-1.9-1.1-.5-2.1-.7-3.2-.7"/></defs><clipPath id="SVGID_00000061447808282974371240000005528873323517573764_"><use xlink:href="#SVGID_00000101799378705710162310000014481959997948590769_" style="overflow:visible"/></clipPath><radialGradient id="path29551-9_00000167379146552604384200000009793413165393345953_" cx="3059.098" cy="4239.1" r="28.331" gradientTransform="matrix(.2014 -.03316 .03065 .1862 -653.043 -647.917)" gradientUnits="userSpaceOnUse"><stop offset="0" style="stop-color:#c8c8c8"/><stop offset="1" style="stop-color:#7a7a79"/></radialGradient><path id="path29551-9" style="clip-path:url(#SVGID_00000061447808282974371240000005528873323517573764_);fill:url(#path29551-9_00000167379146552604384200000009793413165393345953_)" d="M89.5 40.6c2.1-1.3 4.8-1.6 7.2-1.3s4.9 1 7.3 1.6c1.8.5 3.6.9 5.2 1.7 1.7.8 3.2 1.9 4.1 3.5.1.3.3.5.4.8.2.2.3.5.6.7.2.2.5.3.8.3.1 0 .3 0 .4-.1l.3-.3c.1-.1.1-.3.1-.5s0-.3-.1-.5c-.6-2.2-2-4.1-3.1-6.1-.6-1.2-1.2-2.5-1.8-3.7-2.2-4.1-5.9-7.4-10.1-9.5-4.2-2.1-8.9-3.1-13.6-3.4-5.4-.3-10.9.3-16.2 1.3-2.3.4-4.7.9-6.7 2-1 .6-2 1.3-2.7 2.2-.7.9-1.3 2-1.4 3.2-.2 1.1 0 2.3.4 3.3.4 1.1 1 2 1.7 2.9 1.4 1.8 3.3 3.1 5 4.7 1.7 1.5 3.3 3.2 5.2 4.4.9.6 2 1.1 3.1 1.4 1.1.3 2.3.4 3.4.2 1.2-.2 2.2-.8 3.2-1.5s1.7-1.6 2.5-2.5c1.4-1.7 2.8-3.6 4.8-4.8"/><linearGradient id="path28795-9-2-2_00000062878140769784573550000015101042246829404828_" gradientUnits="userSpaceOnUse" x1="216.703" y1="704.919" x2="227.393" y2="715.215" gradientTransform="translate(-124 -676.362)"><stop offset="0" style="stop-color:#656565;stop-opacity:0"/><stop offset=".306" style="stop-color:#656565;stop-opacity:.5825"/><stop offset=".47" style="stop-color:#656565"/><stop offset=".728" style="stop-color:#656565;stop-opacity:.2573"/><stop offset="1" style="stop-color:#656565;stop-opacity:0"/></linearGradient><path id="path28795-9-2-2" style="fill:url(#path28795-9-2-2_00000062878140769784573550000015101042246829404828_)" d="M98.4 33.3c2 1.9 3.5 4.2 4.5 6.6-.4-2.7-1.1-4.9-2.9-6.6-1.1-1-2.3-1.9-3.7-2.5-1.2-.5-2.6-.9-3.3-.9h-1.1c-.2 0-.3 0 .2.1s1.6.4 2.8.9 2.5 1.3 3.5 2.4z"/></g><g id="g652"><radialGradient id="path28795-3_00000145761037671326880300000005757749868451975810_" cx="89.438" cy="614.896" r="11.626" gradientTransform="matrix(1.0858 -.03431 .03944 1.248 2.347 -717.325)" gradientUnits="userSpaceOnUse"><stop offset="0" style="stop-color:#fffffd"/><stop offset=".757" style="stop-color:#fffffd"/><stop offset="1" style="stop-color:#d4d4d4"/></radialGradient><path id="path28795-3" style="fill:url(#path28795-3_00000145761037671326880300000005757749868451975810_)" d="M117.7 34.8c-2.2 1.5-4.1 3.6-5 6.2-1.1 3.2-.7 6.8.4 10 1.1 3.3 3 6.4 5.9 8.4 1.4 1 3.1 1.7 4.8 1.9s3.5-.1 5.1-.9c1.9-1 3.3-2.7 4.2-4.6.9-1.9 1.3-4 1.4-6.2.2-2.7-.1-5.4-1-8-1-2.8-2.7-5.3-5.2-6.9-1.2-.8-2.6-1.3-4.1-1.5s-3-.1-4.3.5c-.7.2-1.5.7-2.2 1.1"/><g id="g613"><path id="path28879-6" class="st0" d="M122.9 41.5c-.8.1-1.6.3-2.4.8-.7.4-1.3 1-1.8 1.7-.9 1.4-1.4 3.1-1.4 4.7-.1 1.3.1 2.5.5 3.7s1.1 2.3 2.1 3.1 2.2 1.3 3.5 1.4c1.3.1 2.6-.3 3.6-1 .8-.6 1.5-1.4 2-2.3.5-.9.8-1.9.9-2.9.2-1.8 0-3.7-.9-5.3-.8-1.6-2.2-2.9-3.9-3.6-.7-.2-1.5-.3-2.2-.3"/><path id="path28891-5" d="M124.8 47c-.7.3-1.8.1-2.1.8-.2.4.1 1.1.5 1.2.8.3 2.1-.3 2.4-1.1.1-.4-.1-.9-.4-1.1-.1 0-.2.2-.4.2z" style="fill:#161615"/><linearGradient id="path28887-6_00000080889766376621666060000011473390896832779177_" gradientUnits="userSpaceOnUse" x1="167.533" y1="719.511" x2="172.893" y2="725.857" gradientTransform="translate(-44 -676.362)"><stop offset="0" style="stop-color:#959494;stop-opacity:.3922"/><stop offset=".5" style="stop-color:#959494"/><stop offset="1" style="stop-color:#959494;stop-opacity:.3922"/></linearGradient><path id="path28887-6" style="fill:url(#path28887-6_00000080889766376621666060000011473390896832779177_)" d="M128 48.8c.9-.9-.7-3.4-1.9-4.4-.9-.7-3.5-1.5-3.4-.7s1.3 1.8 2.1 2.6c1 1 2.8 2.9 3.2 2.5z"/></g><defs><path id="SVGID_00000048466336790538444170000016102349653986994848_" d="M117.7 34.8c-2.2 1.5-4.1 3.6-5 6.2-1.1 3.2-.7 6.8.4 10 1.1 3.3 3 6.4 5.9 8.4 1.4 1 3.1 1.7 4.8 1.9s3.5-.1 5.1-.9c1.9-1 3.3-2.7 4.2-4.6.9-1.9 1.3-4 1.4-6.2.2-2.7-.1-5.4-1-8-1-2.8-2.7-5.3-5.2-6.9-1.2-.8-2.6-1.3-4.1-1.5s-3-.1-4.3.5c-.7.2-1.5.7-2.2 1.1"/></defs><clipPath id="SVGID_00000046334489726978803990000004771512450484454813_"><use xlink:href="#SVGID_00000048466336790538444170000016102349653986994848_" style="overflow:visible"/></clipPath><linearGradient id="path28972-5_00000168109728001305477520000013282980438991418815_" gradientUnits="userSpaceOnUse" x1="293.93" y1="707.613" x2="310.983" y2="717.586" gradientTransform="translate(-174 -676.362)"><stop offset="0" style="stop-color:#757575"/><stop offset=".125" style="stop-color:#8c8c8c"/><stop offset=".25" style="stop-color:#a4a4a5"/><stop offset=".5" style="stop-color:#d4d4d4"/><stop offset=".619" style="stop-color:#d4d4d4"/><stop offset="1" style="stop-color:#7d7d7d"/></linearGradient><path id="path28972-5" style="clip-path:url(#SVGID_00000046334489726978803990000004771512450484454813_);fill:url(#path28972-5_00000168109728001305477520000013282980438991418815_)" d="M109.4 42.9c1.9-1.6 4.1-2.8 6.5-3.5 4.9-1.5 10.4-.9 14.7 1.8 1.5.9 2.8 2.1 4.2 3.2 1.4 1.1 2.8 2.1 4.5 2.7.9.3 1.8.5 2.8.4.9-.1 1.7-.4 2.4-.9s1.3-1.1 1.7-1.9c.9-1.5 1.2-3.2 1-4.9-.3-3.4-2.2-6.4-3.8-9.4-.5-.9-1-1.9-1.6-2.8-1.9-2.7-4.8-4.5-8-5.5-3.1-1-6.4-1.4-9.7-1.8-1.5-.2-2.9-.4-4.4-.2-1.7.2-3.3.9-4.9 1.3-.8.2-1.6.3-2.3.6-.8.2-1.5.5-2.2 1-.9.7-1.5 1.8-1.7 3-.2 1.1-.2 2.3 0 3.5.4 2.3 1.2 4.6 1.1 6.9-.1 1.6-.6 3.2-.5 4.8 0 .5.1.9.2 1.4"/><linearGradient id="path28795-92-2_00000034057276941365492240000007032363289697848988_" gradientUnits="userSpaceOnUse" x1="249.237" y1="704.444" x2="260.59" y2="715.162" gradientTransform="translate(-124 -676.362)"><stop offset="0" style="stop-color:#656565;stop-opacity:0"/><stop offset=".306" style="stop-color:#656565;stop-opacity:.5825"/><stop offset=".47" style="stop-color:#656565"/><stop offset=".728" style="stop-color:#656565;stop-opacity:.2573"/><stop offset="1" style="stop-color:#656565;stop-opacity:0"/></linearGradient><path id="path28795-92-2" style="fill:url(#path28795-92-2_00000034057276941365492240000007032363289697848988_)" d="M125.4 28.3c-.4.5-.7 1-1 1.6 1.7.4 3.4 1.1 4.8 2 2.8 1.9 5 4.6 6.5 7.7.4-.4.7-.8.9-1.3-1.5-3.2-3.7-6.1-6.6-8-1.3-.9-2.9-1.6-4.6-2z"/></g></g><g id="g735"><radialGradient id="path28849-2_00000039108910168179943190000000029030131147442065_" cx="-263.558" cy="1409.844" r="12.272" gradientTransform="matrix(.6978 -.5072 .4603 .6334 -360.248 -971.612)" gradientUnits="userSpaceOnUse"><stop offset="0" style="stop-color:#050507"/><stop offset=".735" style="stop-color:#050507"/><stop offset="1" style="stop-color:#5d5d5d"/></radialGradient><path id="path28849-2" style="fill:url(#path28849-2_00000039108910168179943190000000029030131147442065_)" d="M99.3 53.6c1.4-1.6 2.4-3.5 3.7-5.2.7-.8 1.5-1.6 2.4-2.1s2-.8 3-.7c1.2.1 2.3.7 3.1 1.5.9.8 1.5 1.8 2 2.9.5 1 .9 2.1 1.6 3 .8.9 1.8 1.6 2.8 2.3.5.4.9.8 1.3 1.2s.7 1 .8 1.6.1 1.2-.1 1.8c-.2.6-.6 1.1-1 1.5-.9.8-2.1 1.3-3.3 1.5-2.4.3-4.9-.4-7.3-.3-2.5.1-4.9.9-7.4.9-1.2 0-2.5-.3-3.5-1.1-.5-.4-1-.8-1.3-1.3s-.5-1.1-.5-1.8c0-.6.1-1.2.4-1.7.2-.5.6-1 .9-1.5.7-.9 1.6-1.6 2.4-2.5"/><g id="g712"><radialGradient id="path28461-2_00000100382633605887762500000010727217011319372461_" cx="-69.444" cy="1434.632" r="24.821" gradientTransform="matrix(.9362 -.3864 .2713 .6574 -208.172 -905.187)" gradientUnits="userSpaceOnUse"><stop offset="0" style="stop-color:#d1952a"/><stop offset=".751" style="stop-color:#d69d28"/><stop offset=".866" style="stop-color:#b5802b"/><stop offset="1" style="stop-color:#946327"/></radialGradient><path id="path28461-2" style="fill:url(#path28461-2_00000100382633605887762500000010727217011319372461_)" d="M85.8 68.9c0 .2.1.5.3.7.2.4.5.6.9.9.3.2.7.4 1 .7 1.9 1.2 3.4 2.8 4.7 4.6 1.8 2.3 3.4 4.9 5.8 6.6 1.7 1.2 3.7 1.9 5.8 2.1 2.4.2 4.9-.1 7.2-.8 2.2-.6 4.3-1.5 6.2-2.7 3.7-2.3 6.7-5.6 10.8-7.1.9-.3 1.8-.6 2.7-1s1.7-1 2.1-1.8c.4-.8.4-1.8.5-2.7.1-1 .4-1.9.6-2.8.2-1 .2-2-.2-2.8-.3-.7-1-1.3-1.7-1.7s-1.5-.5-2.3-.6c-1.6-.1-3.2.3-4.8.5-2.1.2-4.2-.1-6.4 0-2.6.1-5.2.7-7.9.8-3 .1-6-.3-9-.4-1.3-.1-2.6 0-3.9.2-1.3.2-2.5.7-3.6 1.4-1 .7-1.9 1.7-2.8 2.5-.5.4-1 .8-1.6 1.1-.6.3-1.2.4-1.8.4-.3 0-.7-.1-1 0-.2.1-.4.2-.5.3-.1.1-.3.3-.4.5-.2.2-.5.7-.7 1.1"/><path id="path28487-2" d="M97.6 72.1c-.3 1.3-.1 2.7.5 3.8.6 1.1 1.7 2 3 2.5 1.6.5 3.4.3 4.8-.5.9-.4 1.6-1.1 2.1-1.9.2-.4.4-.9.5-1.4s0-1-.1-1.4c-.2-.5-.5-.9-.9-1.3-.4-.3-.9-.6-1.4-.8-1-.3-2.1-.3-3.1-.3-1.6.1-3.2.3-4.8.6" style="fill:#d9b428"/><path id="path27476-7-8" d="M92.5 62.2c-1.1.6-2.1 1.3-3.1 2-.5.4-1.1.8-1.3 1.4-.2.4-.2.9-.2 1.3v1.4c0 .3-.1.6-.1.9v.5c0 .1.1.3.2.4.1.1.3.2.5.3s.4.1.6.1c.9.2 1.8.8 2.5 1.4s1.4 1.4 2.1 2c2 1.6 4.7 2.3 7.3 2.4 2.6 0 5.2-.5 7.7-1.1 2-.5 4-.9 5.9-1.6 3-1.1 5.7-2.7 8.1-4.8 1.1-.9 2.1-2 3.3-2.7 1.1-.7 2.3-1.1 3.4-1.8.1-.1.2-.1.3-.2s.2-.2.2-.3c.1-.2.1-.4 0-.6-.1-.2-.2-.4-.3-.5-.1-.2-.3-.3-.5-.5-1.1-1-2.7-1.3-4.2-1.4-1.5-.1-3 0-4.5-.3-1.4-.2-2.7-.7-4-1.2-1.4-.5-2.8-.8-4.3-1-3.4-.6-7-.5-10.4.3-3.3.7-6.4 1.9-9.2 3.6" style="fill:#5f461b"/><linearGradient id="path27476-4_00000136377974672402951260000014052048421514512770_" gradientUnits="userSpaceOnUse" x1="220.71" y1="739.611" x2="265.77" y2="739.259" gradientTransform="translate(-134 -676.362)"><stop offset="0" style="stop-color:#ac7a2b"/><stop offset=".12" style="stop-color:#d7a029"/><stop offset=".255" style="stop-color:#ecb91e"/><stop offset=".392" style="stop-color:#eac81c"/><stop offset=".527" style="stop-color:#f5d839"/><stop offset=".769" style="stop-color:#f6d812"/><stop offset="1" style="stop-color:#f5cd33"/></linearGradient><path id="path27476-4" style="fill:url(#path27476-4_00000136377974672402951260000014052048421514512770_)" d="M92.1 58.6c-1.5 1-2.9 2.3-4.1 3.7-.7.8-1.3 1.7-1.6 2.7-.3.8-.4 1.6-.5 2.4-.1.3-.1.6-.1.9 0 .2 0 .3.1.5 0 .1.1.3.2.4.2.2.4.3.7.3.3.1.5.1.8.1 1.2.1 2.2.7 3.2 1.4s1.8 1.4 2.8 2.1c2.2 1.4 4.8 2 7.4 2.1s5.2-.3 7.7-.8c2-.4 4-.9 5.9-1.6 2.9-1.2 5.6-2.9 8.1-4.8 1.1-.9 2.3-1.7 3.3-2.7.3-.3.7-.7 1.1-1 .4-.3.8-.6 1.2-.7.7-.2 1.5-.2 2.2 0 .5.1 1.1.2 1.7.2.3 0 .6-.1.8-.2.3-.1.5-.3.7-.5.2-.3.4-.6.4-1s-.1-.7-.3-1c-.4-.6-1-1.1-1.7-1.4-.9-.4-1.9-.6-2.9-.8-3-.7-5.9-1.8-8.6-3.2-1.4-.7-2.7-1.4-4-2.2-1.4-.7-2.8-1.5-4.3-1.9-3.4-1-7-.7-10.4.5-3.9 1.3-7.2 3.5-9.8 6.5"/><path id="path28357-7" d="M115.7 59.3c-.2-.2-.4-.4-.7-.5s-.6-.1-.9 0c-.6.1-1.1.4-1.6.7-1.4.9-2.6 2.1-3.6 3.4-1.4 1.7-2.5 3.6-2.9 5.8-.1.4-.1.7-.1 1.1s.2.7.4 1c.2.2.5.4.9.4.3 0 .7 0 1-.1.6-.2 1.1-.6 1.6-1.1 2.7-2.4 5.1-5.2 6-8.7.1-.3.2-.7.2-1.1.1-.2 0-.6-.3-.9" style="fill:#f6da4a"/><g id="g681"><radialGradient id="path28396-7_00000127736226363938876920000000146937710858321851_" cx="35.296" cy="1196.53" r="2.577" gradientTransform="matrix(1 0 0 .5833 76 -643.265)" gradientUnits="userSpaceOnUse"><stop offset="0" style="stop-color:#392b14"/><stop offset=".555" style="stop-color:#735421"/><stop offset="1" style="stop-color:#ab8d30"/></radialGradient><path id="path28396-7" style="opacity:.8;fill:url(#path28396-7_00000127736226363938876920000000146937710858321851_);enable-background:new" d="M109.4 54.4c.2.6 1.1.5 1.7.8.5.2.9.8 1.4.8s1.3-.2 1.4-.7c.1-.7-.9-1.1-1.5-1.4-.8-.3-1.9-.5-2.6-.1-.3.2-.5.4-.4.6z"/><radialGradient id="path28398-7_00000143577227641093697190000006305379737813858745_" cx="23.691" cy="685.681" r="1.225" gradientTransform="matrix(1 0 0 1.0751 76 -682.338)" gradientUnits="userSpaceOnUse"><stop offset="0" style="stop-color:#392b14"/><stop offset=".555" style="stop-color:#735421"/><stop offset="1" style="stop-color:#ab8d30"/></radialGradient><path id="path28398-7" style="opacity:.8;fill:url(#path28398-7_00000143577227641093697190000006305379737813858745_);enable-background:new" d="M100.3 54.1c-.7-.2-1.9 1-1.5 1.7.1.2.4.4.6.3.3-.2.6-.8.9-1.1.3-.2.2-.8 0-.9z"/></g><defs><path id="SVGID_00000000933858946198083820000000639538873294213018_" d="M108.1 51c-2.2 0-4.4.4-6.5 1.1-3.7 1.3-7 3.6-9.5 6.5-1.5 1-2.9 2.3-4.1 3.7-.7.8-1.3 1.7-1.6 2.7-.3.8-.4 1.6-.5 2.4-.1.3-.1.6-.1.9 0 .2 0 .3.1.5 0 0 0 .1.1.1.1.2.1.4.2.5.2.4.5.6.9.9.3.2.7.4 1 .7 1.9 1.2 3.4 2.8 4.7 4.6 1.8 2.3 3.4 4.9 5.8 6.6 1.7 1.2 3.7 1.9 5.8 2.1 2.4.2 4.9-.1 7.2-.8 2.2-.6 4.3-1.5 6.2-2.7 3.7-2.3 6.7-5.6 10.8-7.1.9-.3 1.8-.6 2.7-1s1.7-1 2.1-1.8c.4-.8.4-1.8.5-2.7.1-1 .4-1.9.6-2.8.2-1 .2-2-.2-2.8-.1-.2-.2-.4-.3-.5 0-.4-.1-.7-.3-1-.4-.6-1-1.1-1.7-1.4-.9-.4-1.9-.6-2.9-.8-3-.7-5.9-1.8-8.6-3.2-1.4-.7-2.7-1.4-4-2.2-1.4-.7-2.8-1.5-4.3-1.9-1.4-.4-2.7-.6-4.1-.6z"/></defs><clipPath id="SVGID_00000101065612616720789360000009944988570954716566_"><use xlink:href="#SVGID_00000000933858946198083820000000639538873294213018_" style="overflow:visible"/></clipPath><linearGradient id="path28570-8_00000083769219425925303580000010526020188120591784_" gradientUnits="userSpaceOnUse" x1="186.634" y1="517.164" x2="186.983" y2="519.358" gradientTransform="matrix(1.0956 0 -.1702 1.5181 15.35 -723.23)"><stop offset="0" style="stop-color:#f6ce2e"/><stop offset="1" style="stop-color:#d59b29"/></linearGradient><path id="path28570-8" style="clip-path:url(#SVGID_00000101065612616720789360000009944988570954716566_);fill:url(#path28570-8_00000083769219425925303580000010526020188120591784_)" d="M134.1 63.4c-.2 1.6-1.3 2.8-2.6 2.8s-2.1-1.3-2-2.8c.2-1.6 1.3-2.8 2.6-2.8s2.2 1.3 2 2.8z"/></g></g></g></g></svg>