<svg width="512" height="512" viewBox="0 0 512 512" fill="none" xmlns="http://www.w3.org/2000/svg">
<g clip-path="url(#clip0_1397_3368)">
<path d="M255.988 0.0364949C114.61 0.0364949 0 114.647 0 256.024C0 393.311 108.081 505.357 243.796 511.714C247.846 511.905 251.903 512.014 255.992 512.014C321.532 512.014 381.303 487.369 426.593 446.868C396.586 466.768 361.504 478.219 324.012 478.219C263.05 478.219 208.453 447.976 171.734 400.285C143.428 366.872 125.094 317.481 123.845 262.05V249.995C125.093 194.566 143.427 145.165 171.727 111.76C208.451 64.0691 263.046 33.8267 324.005 33.8267C361.506 33.8267 396.594 45.2769 426.604 65.1898C381.536 24.8735 322.126 0.27983 256.951 0.037804C256.626 0.037804 256.307 0.0251265 255.983 0.0251265L255.988 0.0364949Z" fill="url(#paint0_linear_1397_3368)"/>
<path d="M171.73 111.774C195.222 84.0417 225.56 67.3184 258.706 67.3184C333.232 67.3184 393.636 151.811 393.636 256.036C393.636 360.26 333.228 444.753 258.706 444.753C225.56 444.753 195.222 428.037 171.737 400.303C208.455 447.994 263.047 478.237 324.014 478.237C361.51 478.237 396.592 466.786 426.596 446.886C478.993 400.011 511.986 331.878 511.986 256.037C511.986 180.206 478.999 112.077 426.615 65.2069C396.602 45.294 361.513 33.8438 324.015 33.8438C263.054 33.8438 208.457 64.0863 171.737 111.777" fill="url(#paint1_linear_1397_3368)"/>
</g>
<defs>
<linearGradient id="paint0_linear_1397_3368" x1="213.308" y1="8.38104" x2="213.308" y2="504.571" gradientUnits="userSpaceOnUse">
<stop stop-color="#FF1B2D"/>
<stop offset="0.3" stop-color="#FF1B2D"/>
<stop offset="0.614" stop-color="#FF1B2D"/>
<stop offset="1" stop-color="#A70014"/>
</linearGradient>
<linearGradient id="paint1_linear_1397_3368" x1="341.853" y1="37.6313" x2="341.853" y2="476.485" gradientUnits="userSpaceOnUse">
<stop stop-color="#9C0000"/>
<stop offset="0.7" stop-color="#FF4B4B"/>
<stop offset="1" stop-color="#FF4B4B"/>
</linearGradient>
<clipPath id="clip0_1397_3368">
<rect width="512" height="512" fill="white"/>
</clipPath>
</defs>
</svg>
