<svg width="512" height="512" fill="none" xmlns="http://www.w3.org/2000/svg"><g opacity=".53" filter="url(#a)"><path d="M492.375 270.13c0 29.69-6.075 59.09-17.879 86.52-11.803 27.43-29.104 52.354-50.914 73.348-21.81 20.994-47.703 37.648-76.199 49.01-28.496 11.362-59.038 17.21-89.882 17.21-30.844 0-61.387-5.848-89.883-17.21-28.496-11.362-54.388-28.016-76.198-49.01-21.81-20.994-39.111-45.918-50.915-73.348-11.803-27.43-17.879-56.83-17.879-86.52 0-59.963 24.746-117.469 68.794-159.869 44.047-42.4 103.788-66.22 166.081-66.22 30.844 0 61.386 5.848 89.882 17.21 28.496 11.362 54.389 28.016 76.199 49.01 21.81 20.994 39.111 45.918 50.914 73.348 11.804 27.431 17.879 56.83 17.879 86.521Z" fill="#000"/></g><path d="M501.319 250.171c0 32.007-6.306 63.701-18.559 93.272a243.742 243.742 0 0 1-52.853 79.073 243.833 243.833 0 0 1-79.101 52.834 243.892 243.892 0 0 1-265.711-52.834 243.69 243.69 0 0 1-71.413-172.345A243.687 243.687 0 0 1 85.095 77.827 243.864 243.864 0 0 1 257.5 6.439c32.019 0 63.724 6.304 93.306 18.553a243.836 243.836 0 0 1 79.101 52.834A243.734 243.734 0 0 1 482.76 156.9a243.657 243.657 0 0 1 18.559 93.272v0Z" fill="url(#b)" stroke="#CDCDCD" stroke-width=".093" stroke-linecap="round" stroke-linejoin="round"/><path d="M482.214 250.171a224.594 224.594 0 0 1-65.817 158.84A224.754 224.754 0 0 1 257.5 474.804a224.753 224.753 0 0 1-158.896-65.793 224.594 224.594 0 0 1-65.817-158.84 224.593 224.593 0 0 1 65.817-158.84A224.754 224.754 0 0 1 257.5 25.537a224.755 224.755 0 0 1 158.897 65.794 224.592 224.592 0 0 1 65.817 158.84Z" fill="url(#c)"/><path d="M257.5 37.252a3.268 3.268 0 0 0-3.276 3.275v37.777a3.268 3.268 0 0 0 3.276 3.275 3.268 3.268 0 0 0 3.276-3.275V40.527a3.268 3.268 0 0 0-3.276-3.275Zm-21.433 1.354a2.998 2.998 0 0 0-.666.003 3.269 3.269 0 0 0-2.919 3.597l1.652 15.804a3.268 3.268 0 0 0 3.598 2.918 3.268 3.268 0 0 0 2.919-3.597l-1.65-15.804a3.269 3.269 0 0 0-2.934-2.92Zm43.016.016a3.268 3.268 0 0 0-2.935 2.919l-1.663 15.802a3.27 3.27 0 0 0 2.917 3.6 3.268 3.268 0 0 0 3.6-2.914l1.663-15.804a3.268 3.268 0 0 0-2.917-3.599 3.464 3.464 0 0 0-.665-.004Zm-65.033 3.176a3.268 3.268 0 0 0-3.188 3.953l7.826 36.957a3.27 3.27 0 0 0 3.884 2.526 3.267 3.267 0 0 0 2.527-3.882l-7.826-36.958a3.27 3.27 0 0 0-3.223-2.598v.002Zm87.049.031a3.265 3.265 0 0 0-3.224 2.595l-7.853 36.953a3.268 3.268 0 0 0 2.524 3.884 3.269 3.269 0 0 0 3.885-2.523l7.854-36.953a3.268 3.268 0 0 0-3.186-3.954v-.002ZM193.038 47.72a3.177 3.177 0 0 0-1.294.151 3.267 3.267 0 0 0-2.104 4.126l4.913 15.113a3.27 3.27 0 0 0 4.128 2.103 3.267 3.267 0 0 0 2.103-4.127l-4.912-15.113a3.269 3.269 0 0 0-2.834-2.253Zm128.954.008a3.27 3.27 0 0 0-2.834 2.253l-4.915 15.112a3.268 3.268 0 0 0 2.103 4.127 3.27 3.27 0 0 0 4.129-2.102l4.915-15.113a3.268 3.268 0 0 0-2.103-4.127 3.291 3.291 0 0 0-1.295-.15ZM172.26 55.321a3.264 3.264 0 0 0-1.271.286 3.266 3.266 0 0 0-1.663 4.322l15.349 34.52a3.268 3.268 0 0 0 4.323 1.663 3.268 3.268 0 0 0 1.665-4.323l-15.351-34.52a3.269 3.269 0 0 0-3.052-1.948Zm170.745.116a3.274 3.274 0 0 0-3.055 1.944L324.554 91.88a3.268 3.268 0 0 0 1.657 4.325 3.27 3.27 0 0 0 4.327-1.657l15.396-34.498a3.268 3.268 0 0 0-1.658-4.326 3.293 3.293 0 0 0-1.271-.287ZM152.973 65.523a3.242 3.242 0 0 0-1.867.434 3.268 3.268 0 0 0-1.199 4.473l7.948 13.762a3.27 3.27 0 0 0 4.476 1.199 3.267 3.267 0 0 0 1.199-4.474l-7.948-13.762a3.272 3.272 0 0 0-2.609-1.632Zm209.054 0c-1.048.07-2.04.65-2.607 1.632l-7.95 13.762a3.268 3.268 0 0 0 1.201 4.473 3.269 3.269 0 0 0 4.475-1.198l7.948-13.762a3.267 3.267 0 0 0-1.199-4.474 3.274 3.274 0 0 0-1.868-.434ZM134.245 77.199a3.285 3.285 0 0 0-1.813.625 3.267 3.267 0 0 0-.728 4.574l22.19 30.578a3.271 3.271 0 0 0 4.577.728 3.267 3.267 0 0 0 .728-4.574l-22.191-30.578a3.269 3.269 0 0 0-2.763-1.353Zm246.745.167a3.262 3.262 0 0 0-2.764 1.348l-22.232 30.548a3.268 3.268 0 0 0 .722 4.576 3.27 3.27 0 0 0 4.577-.721l22.231-30.548a3.268 3.268 0 0 0-.722-4.575 3.273 3.273 0 0 0-1.812-.628ZM117.505 91.233a3.257 3.257 0 0 0-2.365.84 3.266 3.266 0 0 0-.242 4.625l10.636 11.811a3.268 3.268 0 0 0 4.626.243 3.269 3.269 0 0 0 .243-4.627l-10.635-11.81a3.266 3.266 0 0 0-2.263-1.082Zm280.015.024a3.279 3.279 0 0 0-2.264 1.082l-10.636 11.809a3.267 3.267 0 0 0 .242 4.626 3.27 3.27 0 0 0 4.627-.243l10.637-11.808a3.268 3.268 0 0 0-.243-4.626 3.265 3.265 0 0 0-2.363-.84ZM101.46 106.64a3.275 3.275 0 0 0-2.262 1.082 3.267 3.267 0 0 0 .243 4.625l28.086 25.275a3.27 3.27 0 0 0 4.626-.243 3.267 3.267 0 0 0-.242-4.625l-28.087-25.274a3.269 3.269 0 0 0-2.365-.84h.001Zm312.182.11a3.262 3.262 0 0 0-2.366.838l-28.102 25.255a3.267 3.267 0 0 0-.248 4.625 3.272 3.272 0 0 0 4.628.246l28.104-25.255a3.266 3.266 0 0 0 .246-4.625 3.268 3.268 0 0 0-2.262-1.084ZM88.118 123.79a3.263 3.263 0 0 0-2.764 1.351 3.266 3.266 0 0 0 .725 4.574l12.86 9.34a3.269 3.269 0 0 0 4.576-.723 3.269 3.269 0 0 0-.724-4.576l-12.86-9.34a3.268 3.268 0 0 0-1.813-.626Zm338.854.119a3.282 3.282 0 0 0-1.813.624l-12.866 9.332a3.27 3.27 0 0 0-.728 4.576 3.27 3.27 0 0 0 4.575.727l12.868-9.332a3.268 3.268 0 0 0 .727-4.574 3.269 3.269 0 0 0-2.763-1.353ZM75.649 142.083a3.26 3.26 0 0 0-2.607 1.633 3.266 3.266 0 0 0 1.199 4.473l32.727 18.889a3.27 3.27 0 0 0 4.475-1.199 3.268 3.268 0 0 0-1.199-4.474l-32.727-18.888a3.27 3.27 0 0 0-1.868-.434Zm363.702 0a3.257 3.257 0 0 0-1.868.434l-32.726 18.889a3.266 3.266 0 0 0-1.199 4.473 3.269 3.269 0 0 0 4.475 1.199l32.728-18.888a3.268 3.268 0 0 0 1.199-4.474 3.27 3.27 0 0 0-2.609-1.632v-.001ZM66.222 161.582a3.263 3.263 0 0 0-3.055 1.942 3.267 3.267 0 0 0 1.657 4.325l14.519 6.474a3.27 3.27 0 0 0 4.326-1.656 3.27 3.27 0 0 0-1.658-4.326l-14.518-6.473a3.262 3.262 0 0 0-1.27-.286Zm382.62.135a3.29 3.29 0 0 0-1.273.285l-14.521 6.463a3.267 3.267 0 0 0-1.662 4.324 3.272 3.272 0 0 0 4.327 1.66l14.521-6.463a3.267 3.267 0 0 0 1.661-4.324 3.267 3.267 0 0 0-3.053-1.945ZM57.82 181.962a3.266 3.266 0 0 0-2.835 2.25 3.267 3.267 0 0 0 2.1 4.129l35.93 11.704a3.27 3.27 0 0 0 4.131-2.099 3.268 3.268 0 0 0-2.1-4.129l-35.93-11.704a3.29 3.29 0 0 0-1.296-.151Zm399.408.14a3.179 3.179 0 0 0-1.294.151l-35.939 11.678a3.269 3.269 0 0 0-2.103 4.128 3.27 3.27 0 0 0 4.129 2.101l35.938-11.678a3.268 3.268 0 0 0 2.104-4.127 3.27 3.27 0 0 0-2.835-2.253ZM52.586 203.355a3.269 3.269 0 0 0-3.226 2.597 3.268 3.268 0 0 0 2.524 3.884l15.55 3.303a3.268 3.268 0 0 0 3.886-2.523 3.267 3.267 0 0 0-2.524-3.884l-15.548-3.303a3.194 3.194 0 0 0-.662-.07v-.004Zm409.836.031a4.044 4.044 0 0 0-.66.07l-15.55 3.302a3.268 3.268 0 0 0-2.524 3.883 3.27 3.27 0 0 0 3.886 2.525l15.548-3.302a3.27 3.27 0 0 0 2.525-3.884 3.27 3.27 0 0 0-3.225-2.597v.003ZM48.624 224.874a3.268 3.268 0 0 0-2.937 2.916 3.269 3.269 0 0 0 2.913 3.602l37.58 3.972a3.27 3.27 0 0 0 3.603-2.914 3.269 3.269 0 0 0-2.914-3.601l-37.58-3.972a3.435 3.435 0 0 0-.665-.003Zm417.788.283a2.968 2.968 0 0 0-.666.002l-37.585 3.921a3.27 3.27 0 0 0-2.919 3.598 3.269 3.269 0 0 0 3.599 2.917l37.585-3.921a3.268 3.268 0 0 0 2.918-3.597 3.268 3.268 0 0 0-2.932-2.921v.001ZM47.988 246.902a3.268 3.268 0 0 0-3.277 3.275 3.269 3.269 0 0 0 3.276 3.275h15.897a3.27 3.27 0 0 0 3.277-3.275 3.27 3.27 0 0 0-3.277-3.275H47.987Zm403.129 0a3.268 3.268 0 0 0-3.276 3.275 3.268 3.268 0 0 0 3.276 3.275h15.896a3.268 3.268 0 0 0 3.276-3.275 3.268 3.268 0 0 0-3.276-3.275h-15.896ZM86.825 264.755a3.018 3.018 0 0 0-.664.003l-37.587 3.921a3.268 3.268 0 0 0-2.918 3.597 3.269 3.269 0 0 0 3.598 2.918l37.587-3.921a3.269 3.269 0 0 0 2.918-3.598 3.27 3.27 0 0 0-2.934-2.92Zm341.33.232a3.268 3.268 0 0 0-2.937 2.916 3.269 3.269 0 0 0 2.913 3.602l37.581 3.972a3.27 3.27 0 0 0 3.603-2.914 3.27 3.27 0 0 0-2.915-3.601l-37.579-3.972a3.45 3.45 0 0 0-.666-.003ZM68.09 287.112a3.41 3.41 0 0 0-.661.07l-15.55 3.302a3.269 3.269 0 0 0-2.524 3.884 3.27 3.27 0 0 0 3.886 2.523l15.55-3.3a3.267 3.267 0 0 0 2.523-3.884 3.269 3.269 0 0 0-3.224-2.597v.002Zm378.816.032a3.265 3.265 0 0 0-3.224 2.595 3.267 3.267 0 0 0 2.523 3.884l15.549 3.303a3.268 3.268 0 0 0 3.886-2.522 3.27 3.27 0 0 0-2.524-3.885l-15.548-3.304a3.265 3.265 0 0 0-.662-.069v-.002ZM94.274 300.043a3.176 3.176 0 0 0-1.293.151l-35.94 11.678a3.268 3.268 0 0 0-2.102 4.127 3.269 3.269 0 0 0 4.128 2.102l35.938-11.678a3.268 3.268 0 0 0 2.104-4.127 3.268 3.268 0 0 0-2.835-2.253Zm326.417.116a3.264 3.264 0 0 0-2.835 2.25 3.268 3.268 0 0 0 2.099 4.129l35.931 11.704a3.272 3.272 0 0 0 4.131-2.1 3.267 3.267 0 0 0-2.1-4.128l-35.931-11.704a3.27 3.27 0 0 0-1.295-.151Zm-340.13 25.462a3.28 3.28 0 0 0-1.272.284l-14.523 6.464a3.267 3.267 0 0 0-1.66 4.324 3.269 3.269 0 0 0 4.325 1.659l14.523-6.462a3.267 3.267 0 0 0 1.66-4.324 3.27 3.27 0 0 0-3.054-1.945Zm353.827.125a3.262 3.262 0 0 0-3.056 1.942 3.267 3.267 0 0 0 1.658 4.325l14.517 6.474a3.27 3.27 0 0 0 4.327-1.657 3.268 3.268 0 0 0-1.657-4.325l-14.518-6.474a3.258 3.258 0 0 0-1.271-.285Zm-325.552 7.097a3.24 3.24 0 0 0-1.868.434l-32.727 18.888a3.268 3.268 0 0 0-1.199 4.474 3.27 3.27 0 0 0 4.475 1.199l32.727-18.887a3.27 3.27 0 0 0 1.199-4.475 3.267 3.267 0 0 0-2.607-1.633Zm297.33 0a3.26 3.26 0 0 0-2.608 1.632 3.268 3.268 0 0 0 1.199 4.475l32.726 18.887a3.27 3.27 0 0 0 4.477-1.198 3.268 3.268 0 0 0-1.199-4.474l-32.728-18.888a3.268 3.268 0 0 0-1.867-.434Zm-305.494 27.718a3.285 3.285 0 0 0-1.812.626l-12.866 9.332a3.268 3.268 0 0 0-.729 4.574 3.27 3.27 0 0 0 4.576.728l12.867-9.332a3.266 3.266 0 0 0 .729-4.574 3.27 3.27 0 0 0-2.765-1.354Zm313.578.111a3.263 3.263 0 0 0-2.764 1.351 3.267 3.267 0 0 0 .725 4.575l12.86 9.341a3.27 3.27 0 0 0 4.576-.726 3.267 3.267 0 0 0-.724-4.574l-12.86-9.34a3.277 3.277 0 0 0-1.813-.628v.001Zm-284.438 1.13a3.258 3.258 0 0 0-2.364.839l-28.104 25.254a3.267 3.267 0 0 0-.247 4.625 3.27 3.27 0 0 0 4.627.246l28.104-25.255a3.266 3.266 0 0 0 .246-4.625 3.27 3.27 0 0 0-2.262-1.084Zm255.299.091a3.276 3.276 0 0 0-2.264 1.082 3.266 3.266 0 0 0 .243 4.625l28.086 25.275a3.272 3.272 0 0 0 4.628-.243 3.267 3.267 0 0 0-.243-4.625l-28.088-25.274a3.262 3.262 0 0 0-2.362-.84Zm-228.637 23.992a3.264 3.264 0 0 0-2.766 1.348l-22.23 30.549a3.267 3.267 0 0 0 .72 4.575 3.27 3.27 0 0 0 4.577-.721l22.231-30.548a3.268 3.268 0 0 0-.721-4.576 3.264 3.264 0 0 0-1.811-.627Zm201.87.137a3.278 3.278 0 0 0-1.813.625 3.267 3.267 0 0 0-.728 4.574l22.189 30.578a3.271 3.271 0 0 0 4.576.728 3.268 3.268 0 0 0 .729-4.574l-22.19-30.578a3.27 3.27 0 0 0-2.763-1.353Zm-230.568 4.718a3.281 3.281 0 0 0-2.264 1.083l-10.636 11.808a3.267 3.267 0 0 0 .242 4.626 3.267 3.267 0 0 0 4.626-.243l10.638-11.808a3.269 3.269 0 0 0-.243-4.627 3.267 3.267 0 0 0-2.363-.839Zm259.429.016a3.252 3.252 0 0 0-2.363.839 3.268 3.268 0 0 0-.244 4.625l10.635 11.811a3.27 3.27 0 0 0 4.627.243 3.267 3.267 0 0 0 .242-4.626l-10.634-11.81a3.27 3.27 0 0 0-2.264-1.083l.001.001Zm-199.687 13.1a3.258 3.258 0 0 0-3.054 1.942l-15.397 34.499a3.268 3.268 0 0 0 1.657 4.325 3.27 3.27 0 0 0 4.327-1.656l15.397-34.499a3.269 3.269 0 0 0-1.658-4.326 3.262 3.262 0 0 0-1.272-.285Zm139.757.095a3.27 3.27 0 0 0-1.273.284 3.267 3.267 0 0 0-1.663 4.322l15.349 34.52a3.27 3.27 0 0 0 4.325 1.662 3.267 3.267 0 0 0 1.663-4.322l-15.349-34.52a3.267 3.267 0 0 0-3.052-1.946Zm-166.812 10.571a3.263 3.263 0 0 0-2.608 1.633l-7.948 13.761a3.268 3.268 0 0 0 1.199 4.474 3.27 3.27 0 0 0 4.476-1.199l7.948-13.761a3.268 3.268 0 0 0-1.199-4.474 3.27 3.27 0 0 0-1.868-.434Zm194.075 0a3.246 3.246 0 0 0-1.867.434 3.268 3.268 0 0 0-1.199 4.474l7.948 13.762a3.27 3.27 0 0 0 4.475 1.198 3.266 3.266 0 0 0 1.199-4.473l-7.948-13.762a3.27 3.27 0 0 0-2.608-1.633Zm-132.744.493a3.266 3.266 0 0 0-3.224 2.596l-7.853 36.952a3.268 3.268 0 0 0 2.524 3.884 3.268 3.268 0 0 0 3.886-2.523l7.853-36.952a3.267 3.267 0 0 0-3.186-3.954v-.003Zm71.296.024a3.267 3.267 0 0 0-3.187 3.951l7.827 36.958a3.268 3.268 0 0 0 3.884 2.526 3.267 3.267 0 0 0 2.527-3.882l-7.828-36.956a3.269 3.269 0 0 0-3.223-2.598v.001Zm-35.59 3.727a3.268 3.268 0 0 0-3.276 3.275v37.777a3.268 3.268 0 0 0 3.276 3.275 3.268 3.268 0 0 0 3.276-3.275v-37.777a3.268 3.268 0 0 0-3.276-3.275Zm-60.139 12.207a3.269 3.269 0 0 0-2.835 2.253l-4.914 15.113a3.268 3.268 0 0 0 2.103 4.127 3.271 3.271 0 0 0 4.129-2.103l4.913-15.111a3.269 3.269 0 0 0-2.102-4.128 3.304 3.304 0 0 0-1.294-.151Zm120.253.008a3.188 3.188 0 0 0-1.293.15 3.27 3.27 0 0 0-2.105 4.127l4.913 15.113a3.269 3.269 0 0 0 4.129 2.102 3.268 3.268 0 0 0 2.104-4.126l-4.914-15.113a3.268 3.268 0 0 0-2.834-2.253Zm-80.679 8.417a3.27 3.27 0 0 0-2.937 2.917l-1.661 15.805a3.267 3.267 0 0 0 2.916 3.598 3.269 3.269 0 0 0 3.601-2.914l1.661-15.803a3.268 3.268 0 0 0-2.915-3.6 3.287 3.287 0 0 0-.665-.003Zm40.999.016a2.977 2.977 0 0 0-.667.002 3.268 3.268 0 0 0-2.918 3.598L276 458.819a3.268 3.268 0 0 0 3.599 2.916 3.269 3.269 0 0 0 2.919-3.597l-1.651-15.804a3.27 3.27 0 0 0-2.934-2.921l.001.001Z" fill="#F4F2F3"/><g opacity=".409" filter="url(#d)"><path d="M411.06 119.172 231.811 223.279 118.478 401.635l165.798-122.761L411.06 119.172Z" fill="#000"/></g><path d="m283.189 277.065-51.379-53.786 182.259-122.561-130.88 176.347Z" fill="#FF5150"/><path d="m283.19 277.065-51.379-53.786-130.88 176.348L283.19 277.065Z" fill="#F1F1F1"/><path opacity=".243" d="m100.931 399.627 182.258-122.562 130.88-176.348-313.138 298.91Z" fill="#000"/><defs><filter id="a" x="20.258" y="41.672" width="474.486" height="456.915" filterUnits="userSpaceOnUse" color-interpolation-filters="sRGB"><feFlood flood-opacity="0" result="BackgroundImageFix"/><feBlend in="SourceGraphic" in2="BackgroundImageFix" result="shape"/><feGaussianBlur stdDeviation="1.184" result="effect1_foregroundBlur_1397_3390"/></filter><filter id="d" x="117.804" y="118.498" width="293.929" height="283.81" filterUnits="userSpaceOnUse" color-interpolation-filters="sRGB"><feFlood flood-opacity="0" result="BackgroundImageFix"/><feBlend in="SourceGraphic" in2="BackgroundImageFix" result="shape"/><feGaussianBlur stdDeviation=".337" result="effect1_foregroundBlur_1397_3390"/></filter><radialGradient id="c" cx="0" cy="0" r="1" gradientUnits="userSpaceOnUse" gradientTransform="matrix(243.82 0 0 243.733 258.523 217.419)"><stop stop-color="#06C2E7"/><stop offset=".25" stop-color="#0DB8EC"/><stop offset=".5" stop-color="#12AEF1"/><stop offset=".75" stop-color="#1F86F9"/><stop offset="1" stop-color="#107DDD"/></radialGradient><linearGradient id="b" x1="257.501" y1="493.903" x2="257.501" y2="6.439" gradientUnits="userSpaceOnUse"><stop stop-color="#BDBDBD"/><stop offset="1" stop-color="#fff"/></linearGradient></defs></svg>