<svg width="512" height="512" viewBox="0 0 512 512" fill="none" xmlns="http://www.w3.org/2000/svg">
<path d="M256 511.212C367.944 511.212 430.147 511.212 470.905 470.59C511.551 429.967 511.551 367.852 511.551 256C511.551 144.148 511.551 82.0324 470.905 41.41C430.147 0.900146 367.944 0.900146 256 0.900146C144.056 0.900146 81.8527 0.900151 41.0948 41.5226C0.449214 82.145 0.449219 144.26 0.449219 256.112C0.449219 367.965 0.449214 430.08 41.0948 470.702C81.8527 511.212 144.056 511.212 256 511.212V511.212Z" fill="#EF3939"/>
<path d="M422.176 161.702C397.698 118.829 356.716 85.4083 305.179 71.5674C202.891 44.2232 97.7966 104.763 70.4001 206.825C56.5896 258.138 65.1229 310.238 90.0493 352.774C90.3861 353.336 90.7229 354.011 91.1721 354.574L181.221 510.425C196.155 510.875 212.323 510.987 229.726 510.987H255.102C304.842 510.987 344.814 510.987 377.488 507.386C418.246 502.885 447.439 492.87 470.007 470.365C502.905 437.507 509.193 390.47 510.428 314.289C457.881 223.367 422.288 161.814 422.176 161.702V161.702Z" fill="url(#paint0_linear_1397_3372)"/>
<path d="M390.512 121.079C315.846 46.3612 194.695 46.3612 119.916 121.079C45.2491 195.798 45.2491 316.877 119.916 391.483C194.582 466.201 315.733 466.201 390.512 391.483C465.291 316.765 465.291 195.685 390.512 121.079V121.079ZM379.06 208.963C347.509 263.764 315.958 318.565 284.407 373.479C278.568 383.719 270.035 389.795 258.358 390.695C245.333 391.596 235.003 386.082 228.379 374.829C208.393 340.508 188.632 305.962 168.87 271.529C156.856 250.599 144.73 229.668 132.716 208.626C120.589 187.471 134.288 161.702 158.54 160.464C171.34 159.789 181.221 165.753 187.733 176.893C196.603 192.084 205.361 207.501 214.232 222.804C220.632 233.832 226.807 244.972 233.319 255.775C242.751 271.641 256.674 280.531 275.2 281.656C301.361 283.232 325.726 264.214 328.87 236.42C329.095 234.395 329.207 232.257 329.319 231.244C329.207 222.242 327.523 214.59 323.93 207.501C314.161 187.921 324.603 165.978 345.825 161.252C363.116 157.426 381.081 170.141 383.326 187.696C384.449 195.235 382.877 202.324 379.06 208.963V208.963Z" fill="white"/>
<defs>
<linearGradient id="paint0_linear_1397_3372" x1="160.222" y1="90.4616" x2="403.241" y2="513.496" gradientUnits="userSpaceOnUse">
<stop stop-opacity="0.2"/>
<stop offset="0.7908" stop-opacity="0.05"/>
</linearGradient>
</defs>
</svg>
